<svg width="105" height="91" viewBox="0 0 105 91" fill="none" xmlns="http://www.w3.org/2000/svg">
<path d="M24.9139 35V26.5467L16.5658 10.4467H21.722L26.9132 20.9696H27.5446L32.7358 10.4467H37.892L29.5439 26.5467V35H24.9139Z" fill="#4B0081"/>
<g filter="url(#filter0_i_1729_4306)">
<path d="M47.2177 28.7585L48.9027 28.2683C50.3046 28.9899 51.8933 29.1595 53.3568 28.7439C54.8202 28.3283 56.0524 27.3575 56.8113 26.0222C57.5702 24.687 57.8008 23.0838 57.4579 21.5279C57.115 19.972 56.2233 18.5758 54.9581 17.6137C53.6928 16.6517 52.1456 16.1933 50.6204 16.3286C49.0952 16.464 47.7024 17.1834 46.7156 18.3454C45.7289 19.5074 45.2196 21.0279 45.2878 22.6082C45.3561 24.1885 45.9969 25.7143 47.0844 26.8856L47.2177 28.7585Z" fill="#4B0081"/>
</g>
<path d="M44.4033 29.6041C44.466 30.6105 44.5115 31.3856 44.5467 31.9213L44.5995 32.4664C44.608 32.6046 44.5884 32.7355 44.5884 32.7355L44.5862 32.5362L44.5368 31.9436L44.3475 29.6008C44.3435 29.5964 44.3405 29.5913 44.3386 29.5857M44.3919 29.611C44.3962 29.604 44.3981 29.5957 44.3974 29.5873C44.3974 29.5873 44.3931 29.5709 44.3876 29.5645C43.2194 28.2832 42.3574 26.7409 41.876 25.0711C41.7274 24.5464 41.6182 24.0124 41.5495 23.474C41.5084 23.1956 41.504 22.9076 41.4782 22.6161C41.4708 22.4731 41.4495 22.3262 41.4553 22.1795L41.4662 21.7349C41.5344 19.0342 42.6185 16.5166 44.4886 14.7159C45.5383 13.7025 46.7977 12.946 48.181 12.4982C49.6882 12.0148 51.3015 11.9135 52.8887 12.2026C54.4759 12.4918 55.9919 13.1631 57.3126 14.1617C57.4814 14.2978 57.6569 14.4258 57.8228 14.5636L58.2946 15.0049L58.5328 15.2262L59.1761 15.9452C59.7099 16.6047 60.1699 17.3233 60.5465 18.0862C61.5187 20.0675 61.8846 22.2843 61.5934 24.4291C61.3022 26.5739 60.3684 28.5404 58.9215 30.0556C57.4746 31.5709 55.5864 32.5598 53.5188 32.8852C51.4512 33.2107 49.3068 32.8564 47.383 31.8717C47.3764 31.8732 47.3704 31.8767 47.366 31.8819L45.3099 32.5109L44.7735 32.6775L44.5873 32.7402C44.5873 32.7402 44.6463 32.7293 44.7646 32.6951L45.2968 32.5475L47.3892 31.9539L47.3722 31.9642C48.8972 32.7602 50.5715 33.1612 52.2454 33.1313C54.1611 33.0937 56.0034 32.5011 57.564 31.4205C59.1246 30.3398 60.3413 28.8143 61.0766 27.0161C61.8119 25.218 62.0365 23.2191 61.7249 21.2452C61.4134 19.2713 60.5783 17.4011 59.3138 15.8461L58.8778 15.3547L58.657 15.1107L58.4187 14.8894L57.937 14.4377C57.7693 14.2969 57.592 14.1659 57.4187 14.0285C56.075 13.011 54.5322 12.3268 52.9167 12.0318C51.3012 11.7368 49.6591 11.8394 48.1249 12.3313C46.7194 12.7908 45.4414 13.5654 44.3789 14.6017C42.4872 16.4324 41.3966 18.9899 41.3396 21.729L41.3295 22.1813C41.3255 22.3311 41.3467 22.478 41.3559 22.624C41.3806 22.9203 41.3897 23.2096 41.4297 23.4927C41.5045 24.0366 41.6181 24.576 41.7698 25.1062C42.2645 26.795 43.149 28.3507 44.3447 29.6352L44.3872 29.5769" stroke="#4B0081" stroke-width="1.73333"/>
<path d="M76.6918 35.4911C74.6808 35.4911 72.9504 35.1286 71.5006 34.4037C70.0741 33.6554 68.9751 32.6031 68.2034 31.2469C67.4551 29.8672 67.081 28.242 67.081 26.3713V10.4467H71.711V26.5116C71.711 28.0082 72.1319 29.1891 72.9738 30.0543C73.839 30.9195 75.0783 31.3521 76.6918 31.3521C78.3053 31.3521 79.533 30.9195 80.3748 30.0543C81.24 29.1891 81.6726 28.0082 81.6726 26.5116V10.4467H86.3027V26.3713C86.3027 28.242 85.9168 29.8672 85.1452 31.2469C84.3969 32.6031 83.2978 33.6554 81.848 34.4037C80.4216 35.1286 78.7028 35.4911 76.6918 35.4911Z" fill="#4B0081"/>
<path d="M11.3385 60.7137C9.4444 60.7137 7.77244 60.3747 6.32263 59.6965C4.87282 59.0184 3.73869 58.0479 2.92025 56.7852C2.10181 55.5225 1.69259 54.0025 1.69259 52.2253V51.2432H6.25248V52.2253C6.25248 53.6985 6.70847 54.8092 7.62045 55.5575C8.53243 56.2824 9.77178 56.6449 11.3385 56.6449C12.9286 56.6449 14.1095 56.3292 14.8812 55.6978C15.6763 55.0665 16.0738 54.2597 16.0738 53.2776C16.0738 52.5995 15.875 52.0499 15.4775 51.629C15.1033 51.2081 14.5421 50.869 13.7938 50.6118C13.0689 50.3312 12.1803 50.074 11.1281 49.8401L10.3213 49.6648C8.63765 49.2906 7.18784 48.8229 5.97187 48.2617C4.77928 47.6771 3.85561 46.9171 3.20086 45.9818C2.56949 45.0464 2.2538 43.8304 2.2538 42.3338C2.2538 40.8373 2.60457 39.5628 3.30609 38.5106C4.03099 37.4349 5.03651 36.6164 6.32263 36.0552C7.63214 35.4706 9.1638 35.1783 10.9176 35.1783C12.6714 35.1783 14.2264 35.4823 15.5827 36.0903C16.9624 36.6749 18.038 37.5635 18.8097 38.7561C19.6048 39.9253 20.0023 41.3985 20.0023 43.1757V44.228H15.4424V43.1757C15.4424 42.2403 15.2553 41.492 14.8812 40.9308C14.5304 40.3462 14.016 39.9253 13.3379 39.6681C12.6597 39.3875 11.853 39.2472 10.9176 39.2472C9.51456 39.2472 8.47397 39.5161 7.79583 40.0539C7.14107 40.5684 6.8137 41.2816 6.8137 42.1935C6.8137 42.8015 6.96569 43.316 7.26969 43.7369C7.59706 44.1578 8.07644 44.5086 8.70781 44.7892C9.33918 45.0698 10.1459 45.3153 11.1281 45.5258L11.9348 45.7012C13.6886 46.0753 15.2086 46.5547 16.4947 47.1393C17.8042 47.7239 18.8214 48.4955 19.5463 49.4543C20.2712 50.413 20.6337 51.6407 20.6337 53.1373C20.6337 54.6339 20.2478 55.9551 19.4762 57.1009C18.7279 58.2233 17.6522 59.1119 16.2492 59.7667C14.8695 60.398 13.2326 60.7137 11.3385 60.7137ZM24.2271 67.2379V42.8249H28.5765V44.9295H29.2079C29.6054 44.2513 30.2251 43.655 31.0669 43.1406C31.9087 42.6028 33.113 42.3338 34.6797 42.3338C36.0828 42.3338 37.3806 42.6846 38.5732 43.3861C39.7658 44.0643 40.7245 45.0698 41.4494 46.4027C42.1743 47.7356 42.5368 49.3491 42.5368 51.2432V51.8044C42.5368 53.6985 42.1743 55.312 41.4494 56.6449C40.7245 57.9778 39.7658 58.995 38.5732 59.6965C37.3806 60.3747 36.0828 60.7137 34.6797 60.7137C33.6275 60.7137 32.7389 60.5851 32.014 60.3279C31.3124 60.094 30.7395 59.7901 30.2952 59.4159C29.8743 59.0184 29.5352 58.6208 29.278 58.2233H28.6466V67.2379H24.2271ZM33.3468 56.8554C34.7265 56.8554 35.8606 56.4227 36.7492 55.5575C37.6612 54.6689 38.1172 53.3828 38.1172 51.6992V51.3484C38.1172 49.6648 37.6612 48.3903 36.7492 47.5251C35.8372 46.6365 34.7031 46.1922 33.3468 46.1922C31.9906 46.1922 30.8564 46.6365 29.9445 47.5251C29.0325 48.3903 28.5765 49.6648 28.5765 51.3484V51.6992C28.5765 53.3828 29.0325 54.6689 29.9445 55.5575C30.8564 56.4227 31.9906 56.8554 33.3468 56.8554ZM54.5221 60.7137C52.7917 60.7137 51.26 60.3513 49.9271 59.6264C48.6176 58.8781 47.5887 57.8375 46.8405 56.5046C46.1155 55.1483 45.7531 53.5582 45.7531 51.7342V51.3133C45.7531 49.4894 46.1155 47.9109 46.8405 46.5781C47.5654 45.2218 48.5826 44.1812 49.8921 43.4563C51.2016 42.708 52.7215 42.3338 54.452 42.3338C56.159 42.3338 57.6439 42.7197 58.9066 43.4914C60.1694 44.2396 61.1515 45.2919 61.853 46.6482C62.5545 47.9811 62.9053 49.5361 62.9053 51.3133V52.8216H50.2428C50.2896 54.0142 50.7339 54.9846 51.5757 55.7329C52.4175 56.4812 53.4464 56.8554 54.6624 56.8554C55.9018 56.8554 56.8138 56.5864 57.3984 56.0486C57.983 55.5108 58.4273 54.9145 58.7312 54.2597L62.3441 56.1538C62.0167 56.7618 61.5373 57.4283 60.906 58.1532C60.298 58.8547 59.4795 59.4627 58.4506 59.9771C57.4217 60.4682 56.1122 60.7137 54.5221 60.7137ZM50.2779 49.5244H58.4156C58.322 48.5189 57.9128 47.7122 57.1879 47.1042C56.4864 46.4962 55.5627 46.1922 54.4169 46.1922C53.2243 46.1922 52.2772 46.4962 51.5757 47.1042C50.8742 47.7122 50.4416 48.5189 50.2779 49.5244ZM72.2407 60.7137C71.0014 60.7137 69.8907 60.5033 68.9085 60.0824C67.9264 59.6381 67.143 59.0067 66.5584 58.1882C65.9972 57.3464 65.7166 56.3292 65.7166 55.1366C65.7166 53.944 65.9972 52.9502 66.5584 52.1552C67.143 51.3367 67.9381 50.7287 68.9436 50.3312C69.9725 49.9103 71.1417 49.6998 72.4512 49.6998H77.2216V48.7177C77.2216 47.8993 76.9643 47.2328 76.4499 46.7184C75.9354 46.1805 75.117 45.9116 73.9946 45.9116C72.8955 45.9116 72.0771 46.1688 71.5392 46.6833C71.0014 47.1743 70.6506 47.8174 70.4869 48.6125L66.4181 47.2445C66.6987 46.3559 67.143 45.5492 67.751 44.8243C68.3824 44.076 69.2125 43.4797 70.2414 43.0354C71.2937 42.5677 72.5681 42.3338 74.0647 42.3338C76.3563 42.3338 78.1686 42.9068 79.5015 44.0526C80.8344 45.1984 81.5008 46.8587 81.5008 49.0334V55.5225C81.5008 56.224 81.8282 56.5747 82.483 56.5747H83.886V60.2227H80.9396C80.0744 60.2227 79.3612 60.0122 78.8 59.5913C78.2388 59.1704 77.9582 58.6092 77.9582 57.9076V57.8726H77.2917C77.1982 58.1532 76.9877 58.5273 76.6603 58.995C76.333 59.4393 75.8185 59.8368 75.117 60.1876C74.4155 60.5383 73.4567 60.7137 72.2407 60.7137ZM73.0124 57.136C74.2518 57.136 75.2573 56.7969 76.029 56.1188C76.824 55.4172 77.2216 54.4936 77.2216 53.3477V52.997H72.7669C71.9484 52.997 71.3054 53.1724 70.8377 53.5231C70.37 53.8739 70.1362 54.3649 70.1362 54.9963C70.1362 55.6277 70.3817 56.1421 70.8728 56.5397C71.3638 56.9372 72.0771 57.136 73.0124 57.136ZM87.1174 60.2227V35.6694H91.537V49.2438H92.1684L97.9208 42.8249H103.673L95.6409 51.2432L103.954 60.2227H98.2716L92.1684 53.3127H91.537V60.2227H87.1174Z" fill="#1E293B"/>
<path d="M39.0068 78.7214C38.8779 78.6202 38.7845 78.5105 38.7268 78.3925C38.669 78.2744 38.6544 78.1539 38.683 78.031C38.7149 77.9079 38.7976 77.7885 38.9312 77.6726L38.9825 77.6281L39.1937 77.7939L39.1424 77.8384C39.0007 77.9614 38.938 78.0872 38.9545 78.2159C38.9726 78.3432 39.0495 78.4601 39.1852 78.5666C39.3243 78.6758 39.4604 78.7329 39.5936 78.7379C39.7268 78.7429 39.839 78.7058 39.9302 78.6267C39.9938 78.5715 40.0273 78.5144 40.0308 78.4553C40.0361 78.3975 40.0204 78.3354 39.9839 78.269C39.9489 78.2011 39.9006 78.1282 39.8387 78.05L39.7382 77.9186C39.6608 77.8147 39.601 77.7152 39.5587 77.6201C39.5165 77.525 39.5026 77.4334 39.517 77.3451C39.5348 77.2568 39.5918 77.1709 39.6879 77.0875C39.784 77.0041 39.8917 76.9514 40.0109 76.9292C40.1318 76.9084 40.256 76.917 40.3833 76.9551C40.5124 76.9945 40.6363 77.0609 40.755 77.1541C40.8755 77.2486 40.9628 77.3509 41.0171 77.4608C41.0746 77.5706 41.0915 77.6808 41.0676 77.7912C41.047 77.9016 40.9781 78.0077 40.8608 78.1094L40.7582 78.1985L40.547 78.0327L40.6496 77.9436C40.7327 77.8715 40.7808 77.799 40.794 77.7258C40.8089 77.6541 40.7963 77.5823 40.7563 77.5105C40.7179 77.44 40.6581 77.3728 40.5767 77.3088C40.4596 77.2169 40.3402 77.1649 40.2185 77.1528C40.0984 77.1393 39.9927 77.1721 39.9015 77.2512C39.8413 77.3035 39.8076 77.3579 39.8007 77.4144C39.7938 77.4709 39.8061 77.5317 39.8376 77.5968C39.8708 77.6606 39.9174 77.7308 39.9775 77.8076L40.0781 77.9391C40.1604 78.0387 40.2235 78.1367 40.2674 78.2332C40.3147 78.3295 40.3312 78.4246 40.3168 78.5183C40.3041 78.6106 40.2473 78.7006 40.1463 78.7882C40.0453 78.8759 39.9311 78.9315 39.8035 78.9553C39.676 78.979 39.5428 78.9713 39.4037 78.9321C39.268 78.8928 39.1357 78.8226 39.0068 78.7214Z" fill="#1E293B"/>
<path d="M39.7681 80.0784L41.4295 78.5927L41.6277 78.7435L41.4324 78.9181L41.4685 78.9455C41.5606 78.9171 41.666 78.9095 41.7847 78.9226C41.9052 78.9371 42.0306 78.9939 42.1611 79.0931C42.2692 79.1753 42.343 79.2726 42.3825 79.3851C42.4252 79.4974 42.4282 79.614 42.3914 79.735C42.3563 79.8572 42.2753 79.9751 42.1483 80.0887L42.117 80.1167C41.9916 80.2289 41.8564 80.3057 41.7116 80.3472C41.5667 80.3886 41.4247 80.3963 41.2855 80.3703C41.148 80.3456 41.0243 80.2914 40.9144 80.2079C40.8269 80.1413 40.7635 80.0745 40.7242 80.0074C40.685 79.943 40.6634 79.8814 40.6594 79.8225C40.6553 79.7636 40.6607 79.7105 40.6755 79.6632L40.6394 79.6358L39.9715 80.2331L39.7681 80.0784ZM41.0292 80.0158C41.1596 80.115 41.3038 80.1608 41.4616 80.1531C41.6228 80.1453 41.7733 80.0789 41.9132 79.9538L41.9349 79.9344C42.0747 79.8094 42.1421 79.681 42.1368 79.5494C42.1349 79.4176 42.0687 79.3021 41.9382 79.2029C41.8095 79.105 41.6636 79.0593 41.5007 79.0658C41.3412 79.0722 41.1915 79.1379 41.0516 79.2629L41.0299 79.2823C40.89 79.4074 40.8219 79.5365 40.8256 79.6696C40.8325 79.8025 40.9004 79.918 41.0292 80.0158Z" fill="#1E293B"/>
<path d="M42.6456 81.5067C42.5158 81.4137 42.4261 81.3092 42.3765 81.1929C42.3285 81.0752 42.3219 80.9546 42.3569 80.8313C42.3918 80.7079 42.4681 80.5906 42.5856 80.4795L42.6138 80.4528C42.7329 80.3402 42.8642 80.2611 43.0079 80.2156C43.1516 80.17 43.2959 80.1588 43.4409 80.1819C43.5875 80.2036 43.723 80.259 43.8475 80.3481C43.9685 80.4348 44.052 80.5336 44.0979 80.6446C44.1454 80.7541 44.1523 80.8684 44.1188 80.9876C44.0852 81.1067 44.0104 81.2211 43.8945 81.3308L43.8099 81.4108L42.7605 80.6594C42.6419 80.7802 42.5895 80.9041 42.6031 81.031C42.6184 81.1565 42.6891 81.2644 42.8153 81.3548C42.9258 81.4339 43.0336 81.4733 43.1386 81.4731C43.2437 81.4728 43.3433 81.4543 43.4376 81.4176L43.5388 81.619C43.464 81.6461 43.3786 81.6657 43.2827 81.6777C43.1885 81.691 43.0873 81.6862 42.979 81.6634C42.8724 81.6418 42.7613 81.5895 42.6456 81.5067ZM42.9159 80.5168L43.7522 81.1157C43.8518 81.0099 43.8936 80.9019 43.8777 80.7916C43.8636 80.6825 43.7987 80.5866 43.683 80.5037C43.5655 80.4196 43.4393 80.3787 43.3044 80.381C43.1694 80.3833 43.0399 80.4286 42.9159 80.5168Z" fill="#1E293B"/>
<path d="M44.2485 82.6405C44.1566 82.5801 44.0863 82.5112 44.0377 82.4337C43.9891 82.3562 43.9688 82.277 43.9767 82.1961C43.9847 82.1152 44.0255 82.0369 44.0993 81.9612C44.1746 81.8841 44.258 81.835 44.3494 81.814C44.4424 81.7915 44.5388 81.7927 44.6386 81.8177C44.7399 81.8412 44.8374 81.8837 44.9311 81.9453L45.3773 82.2383L45.4586 82.1549C45.5369 82.0747 45.5707 81.993 45.56 81.91C45.5511 81.8282 45.4926 81.7518 45.3844 81.6807C45.2781 81.6109 45.1733 81.5788 45.0701 81.5845C44.9685 81.5887 44.8707 81.6207 44.7768 81.6806L44.6309 81.4936C44.7143 81.4445 44.8043 81.4099 44.9008 81.3897C44.9989 81.368 45.1017 81.3672 45.2094 81.3872C45.3203 81.4069 45.4308 81.4528 45.5407 81.525C45.7101 81.6363 45.8048 81.7606 45.8248 81.8978C45.8462 82.0334 45.7907 82.1692 45.6582 82.305L45.159 82.8168C45.1138 82.8631 45.1164 82.9028 45.1669 82.936L45.2886 83.0159L45.1372 83.171L44.9507 83.0485C44.8912 83.0094 44.857 82.9642 44.848 82.9127C44.8406 82.8597 44.8602 82.8093 44.9069 82.7614L44.9182 82.7498L44.8858 82.7285C44.8373 82.7448 44.7802 82.7579 44.7143 82.7679C44.6517 82.7774 44.5818 82.7733 44.5046 82.7555C44.4258 82.7392 44.3405 82.7009 44.2485 82.6405ZM44.4265 82.499C44.5526 82.5819 44.6853 82.6171 44.8246 82.6048C44.9672 82.592 45.0949 82.5278 45.2078 82.412L45.2327 82.3865L44.7947 82.0988C44.71 82.0432 44.6238 82.0132 44.5363 82.0089C44.4522 82.0043 44.3792 82.0336 44.3174 82.0969C44.2557 82.1602 44.2355 82.2279 44.2567 82.3002C44.2797 82.3735 44.3363 82.4398 44.4265 82.499Z" fill="#1E293B"/>
<path d="M45.727 83.5744L47.1998 81.8544L47.4217 81.9811L46.5548 82.9935L46.5942 83.0159L47.6463 82.8814L47.9553 83.0578L46.6933 83.2079L46.9489 84.2722L46.6427 84.0973L46.4364 83.2002L46.397 83.1777L45.9489 83.7011L45.727 83.5744Z" fill="#1E293B"/>
<path d="M48.291 84.9873L49.5524 83.1067L49.8012 83.2159L48.5399 85.0964L48.291 84.9873Z" fill="#1E293B"/>
<path d="M49.8594 85.6596C49.774 85.6293 49.7199 85.5842 49.6971 85.5242C49.6764 85.4649 49.6868 85.3975 49.7285 85.3219L50.2503 84.3758L49.8021 84.2169L49.9099 84.0215L50.3581 84.1804L50.6299 83.6875L50.8708 83.7729L50.599 84.2658L51.0868 84.4388L50.979 84.6342L50.4912 84.4613L49.9881 85.3733C49.9568 85.43 49.9707 85.4688 50.0296 85.4897L50.362 85.6075L50.2557 85.8001L49.8594 85.6596Z" fill="#1E293B"/>
<path d="M51.0646 86.1288C51.0043 86.1124 50.9615 86.0797 50.9362 86.0308C50.9129 85.9825 50.9142 85.9286 50.94 85.8693C50.9658 85.81 51.0066 85.7669 51.0624 85.7401C51.1204 85.7138 51.1795 85.7089 51.2399 85.7253C51.3023 85.7423 51.3451 85.775 51.3683 85.8233C51.3915 85.8717 51.3903 85.9255 51.3645 85.9849C51.3387 86.0442 51.2979 86.0873 51.242 86.1141C51.1862 86.1409 51.127 86.1458 51.0646 86.1288Z" fill="#1E293B"/>
<path d="M53.1175 86.6139L53.6869 84.4223L53.9556 84.4628L53.448 86.4165L54.5803 86.5873L54.5185 86.8252L53.1175 86.6139Z" fill="#1E293B"/>
<path d="M56.1009 87.0426C55.9418 87.0302 55.8071 86.9864 55.6968 86.911C55.5869 86.8334 55.508 86.7313 55.46 86.6047C55.412 86.478 55.4003 86.3347 55.4249 86.1749L55.4308 86.1365C55.4557 85.9745 55.5108 85.8353 55.5961 85.719C55.6814 85.6027 55.7883 85.5161 55.9167 85.4591C56.0455 85.4001 56.1862 85.3765 56.3388 85.3883C56.4872 85.3998 56.6134 85.442 56.7176 85.5147C56.822 85.5854 56.8975 85.6818 56.944 85.8041C56.9904 85.9263 57.0016 86.0663 56.9773 86.224L56.9596 86.3391L55.6728 86.2394C55.6533 86.4083 55.6879 86.5447 55.7763 86.6486C55.8651 86.7504 55.9869 86.8073 56.1417 86.8193C56.2772 86.8298 56.3862 86.8069 56.4688 86.7508C56.5514 86.6946 56.6186 86.6254 56.6704 86.5432L56.8735 86.6657C56.8311 86.7293 56.7758 86.7918 56.7076 86.8534C56.6415 86.9152 56.5588 86.9648 56.4595 87.0024C56.3623 87.0402 56.2428 87.0536 56.1009 87.0426ZM55.708 86.0318L56.7336 86.1113C56.7472 85.9657 56.7141 85.8488 56.6341 85.7606C56.5562 85.6726 56.4463 85.6231 56.3044 85.6121C56.1604 85.601 56.0359 85.6323 55.931 85.7061C55.8261 85.78 55.7517 85.8885 55.708 86.0318Z" fill="#1E293B"/>
<path d="M58.2877 87.1697C58.1777 87.167 58.0789 87.1453 57.9913 87.1045C57.9037 87.0636 57.8367 87.006 57.7905 86.9317C57.7443 86.8573 57.7251 86.7675 57.7331 86.6621C57.7412 86.5546 57.7737 86.467 57.8306 86.3994C57.8877 86.3297 57.9628 86.2787 58.056 86.2464C58.1493 86.212 58.252 86.1961 58.3641 86.1988L58.8977 86.2114L58.9064 86.0953C58.9149 85.9835 58.8881 85.8945 58.8261 85.8284C58.7663 85.7624 58.6717 85.7278 58.5424 85.7248C58.4152 85.7217 58.3136 85.7506 58.2378 85.8113C58.1621 85.8698 58.1074 85.9504 58.0738 86.053L57.8403 85.9699C57.8728 85.8823 57.9198 85.8037 57.9812 85.7341C58.0428 85.6623 58.1215 85.606 58.2175 85.5652C58.3157 85.5223 58.4306 85.5024 58.5621 85.5055C58.7648 85.5103 58.9182 85.5667 59.0224 85.6747C59.1267 85.7806 59.1717 85.9282 59.1575 86.1174L59.1038 86.8303C59.0989 86.8948 59.1266 86.9278 59.187 86.9292L59.3325 86.9326L59.3162 87.1488L59.0931 87.1435C59.022 87.1418 58.9663 87.1211 58.9261 87.0814C58.886 87.0395 58.8685 86.9852 58.8736 86.9185L58.8748 86.9024L58.836 86.9015C58.8092 86.9418 58.7736 86.984 58.7292 87.0282C58.6872 87.0703 58.6306 87.1045 58.5595 87.1308C58.4882 87.1593 58.3976 87.1723 58.2877 87.1697ZM58.3333 86.951C58.4842 86.9546 58.6094 86.9134 58.7087 86.8274C58.8104 86.7393 58.8673 86.6146 58.8795 86.4534L58.8821 86.4179L58.3582 86.4055C58.2569 86.4031 58.1711 86.4237 58.1009 86.4672C58.033 86.5087 57.9957 86.5735 57.989 86.6617C57.9824 86.7499 58.0106 86.8195 58.0737 86.8705C58.139 86.9216 58.2255 86.9484 58.3333 86.951Z" fill="#1E293B"/>
<path d="M60.1239 87.1515L60.1571 85.57L60.4061 85.5667L60.402 85.7607L60.4473 85.7601C60.4768 85.6907 60.521 85.6395 60.5799 85.6063C60.6388 85.5732 60.7157 85.556 60.8106 85.5547L60.9982 85.5522L60.9933 85.785L60.7895 85.7878C60.6752 85.7893 60.5818 85.8229 60.5093 85.8886C60.439 85.952 60.4024 86.0506 60.3996 86.1843L60.3794 87.1481L60.1239 87.1515Z" fill="#1E293B"/>
<path d="M61.9017 87.1202L61.8165 85.5406L62.0651 85.5246L62.0795 85.7927L62.1247 85.7898C62.1551 85.7122 62.2095 85.6406 62.2881 85.575C62.3686 85.5071 62.4896 85.4679 62.651 85.4575C62.7694 85.4498 62.8762 85.4678 62.9714 85.5113C63.0687 85.5547 63.148 85.6231 63.2092 85.7164C63.2704 85.8097 63.3048 85.9274 63.3125 86.0695L63.364 87.0256L63.109 87.0421L63.0585 86.1054C63.05 85.9482 63.004 85.8366 62.9206 85.7707C62.8393 85.7046 62.7319 85.6759 62.5985 85.6846C62.4457 85.6944 62.3235 85.752 62.232 85.8574C62.1427 85.9625 62.1033 86.1131 62.1139 86.3091L62.1567 87.1037L61.9017 87.1202Z" fill="#1E293B"/>
<path d="M65.3988 86.6739L64.7343 84.5092L64.9988 84.4468L65.6633 86.6115L65.3988 86.6739Z" fill="#1E293B"/>
<path d="M67.1428 86.1612C67.0565 86.1887 66.9799 86.1873 66.913 86.1568C66.8481 86.1257 66.7986 86.0705 66.7644 85.9913L66.3361 84.9994L65.8831 85.144L65.7947 84.9391L66.2477 84.7945L66.0246 84.2777L66.268 84.2L66.4911 84.7168L66.9842 84.5594L67.0727 84.7643L66.5796 84.9217L66.9925 85.878C67.0181 85.9374 67.0607 85.9576 67.1203 85.9386L67.4562 85.8314L67.5434 86.0333L67.1428 86.1612Z" fill="#1E293B"/>
<path d="M68.3908 85.7446C68.3324 85.7668 68.2735 85.7673 68.2142 85.7463C68.1569 85.7245 68.1133 85.685 68.0833 85.6276C68.0534 85.5703 68.0481 85.5162 68.0674 85.4653C68.0888 85.4137 68.1287 85.3768 68.1872 85.3546C68.2477 85.3317 68.3065 85.3311 68.3638 85.3529C68.4211 85.3747 68.4647 85.4142 68.4947 85.4716C68.5246 85.5289 68.5299 85.583 68.5106 85.6339C68.4912 85.6847 68.4513 85.7216 68.3908 85.7446Z" fill="#1E293B"/>
<path d="M70.2661 84.8776L68.9962 83.0029L69.2409 82.8849L70.373 84.5561L71.4046 84.059L71.5425 84.2626L70.2661 84.8776Z" fill="#1E293B"/>
<path d="M72.1039 83.8747L71.0773 82.6713L71.2967 82.5403L72.3233 83.7438L72.1039 83.8747ZM71.0289 82.4179C70.9807 82.4467 70.9281 82.457 70.871 82.449C70.8157 82.4399 70.7698 82.414 70.7335 82.3714C70.6957 82.3271 70.6806 82.2816 70.6883 82.2349C70.6979 82.1871 70.7267 82.1489 70.7748 82.1201C70.823 82.0914 70.8747 82.0816 70.93 82.0907C70.9853 82.0998 71.0318 82.1265 71.0696 82.1708C71.106 82.2134 71.1203 82.2581 71.1126 82.3048C71.1049 82.3515 71.077 82.3892 71.0289 82.4179Z" fill="#1E293B"/>
<path d="M73.3097 83.0294L71.7056 82.271L71.9256 82.1115L73.3181 82.7915L73.3548 82.7649L72.7323 81.5268L72.9523 81.3673L73.6397 82.7902L73.3097 83.0294Z" fill="#1E293B"/>
<path d="M75.2108 81.5414C75.0885 81.6439 74.9552 81.7129 74.8108 81.7483C74.6648 81.7823 74.5185 81.782 74.3719 81.7474C74.2254 81.7127 74.0894 81.6444 73.964 81.5422L73.9339 81.5177C73.8068 81.4142 73.7212 81.3022 73.6771 81.1817C73.633 81.0611 73.6304 80.9416 73.6694 80.8231C73.7068 80.7033 73.7841 80.5943 73.9015 80.4959C74.0155 80.4002 74.1413 80.3361 74.2791 80.3035C74.4151 80.2695 74.554 80.2692 74.6955 80.3025C74.8371 80.3358 74.9697 80.4029 75.0935 80.5036L75.1838 80.5771L74.1949 81.4066C74.332 81.51 74.4778 81.5591 74.6323 81.5538C74.7852 81.5472 74.9212 81.494 75.0401 81.3942C75.1442 81.3069 75.2001 81.22 75.2078 81.1334C75.2155 81.0468 75.2007 80.9637 75.1636 80.8843L75.4149 80.8104C75.442 80.8734 75.4591 80.9447 75.4663 81.0243C75.4752 81.1026 75.4617 81.1858 75.4258 81.274C75.3915 81.3608 75.3198 81.4499 75.2108 81.5414ZM74.0343 81.2718L74.8224 80.6107C74.7021 80.5237 74.5746 80.4841 74.4401 80.4919C74.3071 80.4984 74.1861 80.5473 74.0771 80.6388C73.9664 80.7317 73.9073 80.8338 73.8998 80.9451C73.8923 81.0564 73.9371 81.1653 74.0343 81.2718Z" fill="#1E293B"/>
<path d="M76.9089 79.977L75.1021 78.6121L75.3042 78.4304L77.1109 79.7953L76.9089 79.977Z" fill="#1E293B"/>
<path d="M78.0876 78.8913C78.0212 78.9528 77.9497 78.9857 77.8733 78.9901C77.7985 78.993 77.7263 78.969 77.6567 78.918L76.7852 78.2793L76.4362 78.6023L76.2562 78.4704L76.6052 78.1474L76.1512 77.8147L76.3388 77.6411L76.7928 77.9738L77.1726 77.6223L77.3527 77.7542L76.9728 78.1057L77.8129 78.7214C77.8651 78.7597 77.9142 78.7576 77.9601 78.7151L78.2189 78.4756L78.3963 78.6056L78.0876 78.8913Z" fill="#1E293B"/>
<path d="M42.2372 67.7243C41.9398 67.6299 41.2916 67.5136 40.6362 67.8886C40.6187 67.8984 40.6013 67.9083 40.584 67.9187C40.5688 67.928 40.5537 67.9377 40.5386 67.9475C40.4654 67.9943 40.393 68.0446 40.3247 68.1025C40.0027 68.3755 39.8391 68.6903 39.7568 68.9078C39.6086 69.2995 39.6253 69.6363 39.6312 69.7359C39.6462 69.9894 39.7069 70.1933 39.7295 70.2676C39.7895 70.4644 39.8736 70.6598 39.9525 70.826C40.1198 71.1786 40.3711 71.6224 40.7082 72.125C41.3863 73.1361 42.4594 74.4526 44.026 75.8242L44.0251 75.8252C48.1589 79.4587 53.5014 81.456 59.0299 81.4411C64.5583 81.4261 69.8935 79.3999 74.0154 75.7455L74.0173 75.7445C75.5634 74.3701 76.6264 73.0636 77.301 72.0573C77.6357 71.5579 77.888 71.1132 78.0568 70.7532C78.1365 70.5832 78.223 70.3799 78.2834 70.1711C78.3084 70.0847 78.3632 69.8834 78.3745 69.6344C78.3797 69.5198 78.3842 69.2506 78.2828 68.9312C78.1763 68.5954 77.8645 67.9696 77.1003 67.6809L76.8737 67.6107C76.3569 67.4832 75.9339 67.6027 75.7644 67.6602C75.5391 67.7367 75.3762 67.8369 75.301 67.886C75.1442 67.9883 75.0259 68.0956 74.977 68.1407C74.8633 68.2455 74.7441 68.3725 74.6549 68.4676C74.4451 68.6909 74.2044 68.9548 73.8647 69.3041C73.2848 69.9004 72.4602 70.6969 71.3642 71.5752L70.8776 71.9557L70.8635 71.9672L70.8504 71.9777C67.4968 74.6426 63.3222 76.1046 59.0143 76.1191C54.7065 76.1337 50.5272 74.6997 47.1638 72.0586L47.1557 72.0522L47.1465 72.0449C45.8155 71.0239 44.8534 70.0646 44.1892 69.3643C43.8963 69.0555 43.5512 68.6775 43.3493 68.4726C43.2495 68.3713 43.0738 68.1958 42.8713 68.0489C42.78 67.9826 42.5544 67.8249 42.2372 67.7243Z" fill="#4B0081" stroke="#4B0081" stroke-width="3.91398"/>
<defs>
<filter id="filter0_i_1729_4306" x="45.2812" y="16.3047" width="12.332" height="14.3731" filterUnits="userSpaceOnUse" color-interpolation-filters="sRGB">
<feFlood flood-opacity="0" result="BackgroundImageFix"/>
<feBlend mode="normal" in="SourceGraphic" in2="BackgroundImageFix" result="shape"/>
<feColorMatrix in="SourceAlpha" type="matrix" values="0 0 0 0 0 0 0 0 0 0 0 0 0 0 0 0 0 0 127 0" result="hardAlpha"/>
<feOffset dy="1.71103"/>
<feGaussianBlur stdDeviation="1.71103"/>
<feComposite in2="hardAlpha" operator="arithmetic" k2="-1" k3="1"/>
<feColorMatrix type="matrix" values="0 0 0 0 0.294118 0 0 0 0 0 0 0 0 0 0.505882 0 0 0 0.25 0"/>
<feBlend mode="normal" in2="shape" result="effect1_innerShadow_1729_4306"/>
</filter>
</defs>
</svg>
