<svg width="65" height="64" viewBox="0 0 65 64" fill="none" xmlns="http://www.w3.org/2000/svg">
<path d="M59.167 29.3329V31.9995C59.14 37.3817 57.485 42.6298 54.4196 47.0538C51.3542 51.4778 47.0218 54.8706 41.992 56.7863C36.9622 58.702 31.4704 59.0508 26.2386 57.7869C21.0069 56.523 16.28 53.7056 12.6795 49.705C9.07896 45.7044 6.77327 40.7079 6.06555 35.3724C5.35782 30.0368 6.2812 24.612 8.71427 19.8111C11.1474 15.0102 14.9762 11.0579 19.6976 8.47377C24.4189 5.88966 29.8117 4.79472 35.167 5.33287M21.8337 37.3329C21.8337 37.3329 25.8337 42.6662 32.5003 42.6662C39.167 42.6662 43.167 37.3329 43.167 37.3329M24.5003 23.9995H24.527M40.5003 23.9995H40.527M43.167 13.3329H59.167M51.167 5.33287V21.3329" stroke="#FFD700" stroke-width="2" stroke-linecap="round" stroke-linejoin="round"/>
</svg>
