<svg width="335" height="266" viewBox="0 0 335 266" fill="none" xmlns="http://www.w3.org/2000/svg">
<path d="M204.934 26.5588C146.643 26.4181 173.015 85.1707 135.468 93.6597C97.9208 102.149 32.9573 43.2687 37.0711 111.321C41.9086 191.266 195.071 249.811 263.056 185.229C331.042 120.647 263.237 26.6928 204.934 26.5588Z" fill="#4B0081"/>
<path opacity="0.9" d="M204.934 26.5588C146.643 26.4181 173.015 85.1707 135.468 93.6597C97.9208 102.149 32.9573 43.2687 37.0711 111.321C41.9086 191.266 195.071 249.811 263.056 185.229C331.042 120.647 263.237 26.6928 204.934 26.5588Z" fill="white"/>
<path d="M164.506 265.651C244.815 265.651 309.917 259.325 309.917 251.521C309.917 243.717 244.815 237.391 164.506 237.391C84.1983 237.391 19.0957 243.717 19.0957 251.521C19.0957 259.325 84.1983 265.651 164.506 265.651Z" fill="#F5F5F5"/>
<path d="M247.346 55.1563H223.782C222.718 55.1563 221.664 55.366 220.681 55.7735C219.697 56.181 218.804 56.7783 218.052 57.5312C217.3 58.284 216.703 59.1778 216.296 60.1614C215.89 61.1449 215.681 62.199 215.682 63.2633V73.0453C215.681 74.1097 215.89 75.1637 216.296 76.1473C216.703 77.1308 217.3 78.0246 218.052 78.7775C218.804 79.5304 219.697 80.1276 220.681 80.5351C221.664 80.9426 222.718 81.1524 223.782 81.1524H239.996L245.135 87.0283L245.45 81.1524H247.353C249.503 81.1524 251.565 80.2982 253.085 78.7779C254.606 77.2575 255.46 75.1955 255.46 73.0453V63.2633C255.46 62.1981 255.25 61.1433 254.842 60.1593C254.434 59.1753 253.836 58.2813 253.083 57.5284C252.329 56.7755 251.435 56.1785 250.45 55.7714C249.466 55.3644 248.411 55.1554 247.346 55.1563Z" fill="#4B0081"/>
<path d="M226.381 68.2665C226.381 68.5912 226.284 68.9085 226.104 69.1785C225.924 69.4484 225.667 69.6588 225.367 69.7831C225.067 69.9073 224.737 69.9398 224.419 69.8765C224.101 69.8131 223.808 69.6568 223.578 69.4272C223.349 69.1977 223.193 68.9052 223.129 68.5867C223.066 68.2683 223.098 67.9383 223.223 67.6383C223.347 67.3384 223.557 67.082 223.827 66.9016C224.097 66.7213 224.415 66.625 224.739 66.625C225.175 66.625 225.592 66.7979 225.9 67.1058C226.208 67.4136 226.381 67.8312 226.381 68.2665Z" fill="white"/>
<path d="M233.59 68.2665C233.589 68.5896 233.492 68.905 233.311 69.1729C233.131 69.4409 232.875 69.6494 232.576 69.7721C232.277 69.8948 231.949 69.9262 231.632 69.8624C231.315 69.7985 231.025 69.6423 230.797 69.4134C230.569 69.1845 230.414 68.8932 230.351 68.5763C230.289 68.2593 230.321 67.931 230.445 67.6327C230.569 67.3343 230.779 67.0794 231.048 66.9001C231.316 66.7207 231.632 66.625 231.955 66.625C232.17 66.625 232.383 66.6675 232.582 66.7501C232.781 66.8327 232.962 66.9537 233.113 67.1062C233.265 67.2587 233.386 67.4397 233.467 67.6388C233.549 67.838 233.591 68.0513 233.59 68.2665Z" fill="white"/>
<path d="M240.806 68.2665C240.806 68.5915 240.71 68.9091 240.529 69.1792C240.349 69.4493 240.092 69.6597 239.792 69.7837C239.491 69.9078 239.161 69.9399 238.842 69.876C238.524 69.8121 238.231 69.6551 238.002 69.4249C237.773 69.1946 237.617 68.9015 237.554 68.5826C237.492 68.2638 237.525 67.9335 237.65 67.6337C237.776 67.3339 237.987 67.078 238.258 66.8984C238.529 66.7188 238.847 66.6237 239.172 66.625C239.387 66.625 239.6 66.6675 239.799 66.7501C239.998 66.8327 240.178 66.9537 240.33 67.1062C240.482 67.2587 240.602 67.4397 240.684 67.6389C240.766 67.838 240.807 68.0513 240.806 68.2665Z" fill="white"/>
<path d="M248.023 68.2665C248.023 68.5915 247.927 68.9091 247.746 69.1792C247.565 69.4493 247.309 69.6597 247.008 69.7837C246.708 69.9078 246.378 69.9399 246.059 69.876C245.74 69.8121 245.448 69.6551 245.219 69.4249C244.989 69.1946 244.834 68.9015 244.771 68.5826C244.708 68.2638 244.742 67.9335 244.867 67.6337C244.992 67.3339 245.204 67.078 245.475 66.8984C245.745 66.7188 246.063 66.6237 246.388 66.625C246.604 66.625 246.817 66.6675 247.016 66.7501C247.214 66.8327 247.395 66.9537 247.547 67.1062C247.699 67.2587 247.819 67.4397 247.901 67.6389C247.982 67.838 248.024 68.0513 248.023 68.2665Z" fill="white"/>
<path d="M219.593 119.613L217.939 122.829C215.125 125.368 212.485 121.181 212.485 121.181L210.381 119.68C210.029 119.393 209.791 118.989 209.71 118.542C209.629 118.095 209.71 117.634 209.939 117.241L211.078 114.99C211.286 114.516 211.669 114.141 212.147 113.943C212.625 113.744 213.161 113.738 213.644 113.925L215.654 114.916C216.237 115.209 216.741 115.639 217.121 116.169L219.593 119.613Z" fill="#D9877C"/>
<path d="M256.906 121.389C253.113 126.964 245.583 136.625 239.09 138.809C229.911 141.489 219.66 130.099 214.763 123.553C214.343 122.954 214.146 122.227 214.206 121.498C214.265 120.769 214.577 120.084 215.087 119.56C215.597 119.036 216.274 118.707 217.002 118.628C217.729 118.55 218.461 118.728 219.071 119.131C223.479 122.173 232.263 128.029 235.311 128.163C239.392 124.297 243.117 118.75 246.648 114.214C247.618 112.904 249.06 112.024 250.668 111.762C252.276 111.499 253.924 111.874 255.26 112.807C256.596 113.74 257.515 115.157 257.823 116.757C258.13 118.357 257.801 120.014 256.906 121.376V121.389Z" fill="#D9877C"/>
<path opacity="0.2" d="M255.438 112.96C254.783 112.464 254.036 112.103 253.24 111.896C252.445 111.689 251.616 111.642 250.802 111.756C249.988 111.869 249.205 112.143 248.496 112.56C247.788 112.977 247.169 113.53 246.675 114.186H246.641L243.365 118.528C242.32 119.935 241.254 121.315 240.189 122.655C241.824 124.31 244.879 128.283 237.449 128.129C236.906 128.129 236.377 128.129 235.861 128.129C235.719 128.151 235.574 128.151 235.432 128.129C230.789 128.376 226.259 129.648 222.166 131.854L222.903 132.524C224.507 133.975 226.231 135.289 228.055 136.45C229.098 137.099 230.191 137.661 231.325 138.132C232.771 138.751 234.317 139.103 235.888 139.171C236.971 139.206 238.053 139.063 239.09 138.748C239.378 138.655 239.68 138.541 239.955 138.434L240.591 138.139C240.819 138.038 240.993 137.938 241.167 137.844L241.69 137.549C242.789 136.886 243.831 136.133 244.805 135.298C246.435 133.903 247.975 132.406 249.415 130.816C250.815 129.308 252.095 127.76 253.355 126.199C254.614 124.638 255.753 123.064 256.899 121.308C257.744 119.986 258.063 118.396 257.792 116.85C257.522 115.305 256.682 113.917 255.438 112.96Z" fill="black"/>
<path d="M253.884 124.297C252.847 127.1 251.332 129.702 249.408 131.989C247.4 134.394 245.056 136.497 242.447 138.233C241.737 138.702 241.308 138.937 241.308 138.937L237.958 132.846L235.023 127.486C235.023 127.486 235.285 127.078 235.747 126.388C238.072 122.964 245.536 112.559 251.827 110.629C251.921 110.602 257.381 114.629 253.884 124.297Z" fill="#4B0081"/>
<path opacity="0.7" d="M253.884 124.297C252.847 127.1 251.332 129.702 249.408 131.989C247.4 134.394 245.056 136.497 242.447 138.233C241.737 138.702 241.308 138.937 241.308 138.937L237.958 132.846L235.023 127.486C235.023 127.486 235.285 127.078 235.747 126.388C238.072 122.964 245.536 112.559 251.827 110.629C251.921 110.602 257.381 114.629 253.884 124.297Z" fill="white"/>
<path d="M242.842 138.936L240.182 139.76L237.449 134.447L233.857 127.458L235.573 125.984L235.78 126.36L238.608 131.385L242.447 138.232L242.842 138.936Z" fill="#4B0081"/>
<path opacity="0.6" d="M242.842 138.936L240.182 139.76L237.449 134.447L233.857 127.458L235.573 125.984L235.78 126.36L238.608 131.385L242.447 138.232L242.842 138.936Z" fill="white"/>
<path opacity="0.1" d="M242.447 138.234L242.843 138.938L240.163 139.762L237.449 134.482C237.61 133.94 237.791 133.41 237.992 132.881C238.186 132.392 238.387 131.903 238.608 131.427C240.693 127.061 243.543 123.103 247.024 119.742C248.024 123.796 248.82 127.897 249.409 132.03C247.398 134.421 245.053 136.511 242.447 138.234Z" fill="black"/>
<path d="M245.482 231.805L254.052 232.026L253.174 242.129L246.012 241.955L245.482 231.805Z" fill="#D9877C"/>
<path opacity="0.2" d="M245.482 231.805L254.052 232.032L253.563 237.687L245.777 237.493L245.482 231.805Z" fill="black"/>
<path d="M259.592 201.729C262.091 188.704 271.15 172.986 263.74 161.656L240.115 165.408C240.115 165.408 240.678 187.78 241.288 199.773C241.918 212.248 244.504 235.732 244.504 235.732L254.313 235.846C254.313 235.846 259.74 216.161 259.592 201.729Z" fill="#263238"/>
<path d="M254.794 236.196L244.195 236.102C244.105 236.103 244.017 236.069 243.95 236.009C243.883 235.948 243.842 235.864 243.833 235.774L243.351 231.881C243.344 231.827 243.349 231.772 243.366 231.719C243.383 231.667 243.411 231.619 243.449 231.579C243.487 231.539 243.533 231.509 243.585 231.489C243.636 231.469 243.691 231.462 243.746 231.466L255.552 232.263C255.605 232.268 255.657 232.284 255.704 232.31C255.75 232.336 255.791 232.372 255.823 232.415C255.854 232.458 255.877 232.508 255.888 232.56C255.899 232.612 255.898 232.667 255.887 232.719L255.163 235.908C255.144 235.991 255.097 236.066 255.03 236.118C254.963 236.171 254.88 236.198 254.794 236.196Z" fill="#263238"/>
<path opacity="0.2" d="M264.376 173.014C264.663 176.038 264.734 179.078 264.59 182.112C263.685 186.219 262.459 190.353 261.367 194.353C258.908 183.392 258.071 170.461 264.376 173.014Z" fill="black"/>
<path d="M253.817 240.843C253.808 240.787 253.788 240.733 253.758 240.685C253.727 240.637 253.687 240.596 253.64 240.564C253.592 240.533 253.539 240.511 253.483 240.502C253.427 240.492 253.37 240.494 253.314 240.508C251.164 241.365 247.09 240.709 245.542 240.414C245.372 240.378 245.196 240.378 245.026 240.412C244.855 240.447 244.694 240.516 244.551 240.615C242.909 241.781 238.521 242.491 238.521 242.491C238.211 243.314 238.135 244.207 238.3 245.07H254.708C254.305 243.686 254.007 242.272 253.817 240.843Z" fill="#263238"/>
<path d="M272.799 233.151L281.308 232.133L281.897 242.257L274.795 243.114L272.799 233.151Z" fill="#D9877C"/>
<path opacity="0.2" d="M272.799 233.151L281.315 232.133L281.643 237.801L273.918 238.732L272.799 233.151Z" fill="black"/>
<path d="M282.861 200.932C283.531 187.686 287.263 175.104 284.322 160.672L258.58 167.627C258.58 167.627 262.211 189.737 264.456 201.515C266.794 213.783 272.583 236.684 272.583 236.684L282.318 235.451C282.318 235.451 284.985 215.21 282.861 200.932Z" fill="#263238"/>
<path d="M282.842 235.732L272.329 237.072C272.24 237.085 272.149 237.065 272.074 237.016C271.999 236.966 271.944 236.891 271.92 236.804L270.909 233.005C270.895 232.952 270.893 232.897 270.903 232.843C270.913 232.79 270.935 232.739 270.967 232.695C270.999 232.65 271.04 232.614 271.088 232.587C271.136 232.561 271.189 232.546 271.244 232.543L283.049 231.712C283.103 231.708 283.157 231.716 283.207 231.734C283.257 231.753 283.303 231.783 283.34 231.821C283.378 231.859 283.407 231.905 283.425 231.956C283.443 232.007 283.45 232.061 283.445 232.114L283.163 235.377C283.162 235.465 283.129 235.55 283.07 235.615C283.01 235.681 282.929 235.722 282.842 235.732Z" fill="#263238"/>
<path d="M282.145 240.843C282.137 240.786 282.117 240.731 282.086 240.683C282.055 240.634 282.014 240.593 281.966 240.561C281.918 240.53 281.864 240.509 281.807 240.499C281.75 240.49 281.692 240.493 281.636 240.508C279.492 241.365 275.412 240.709 273.871 240.414C273.701 240.378 273.525 240.378 273.354 240.412C273.184 240.447 273.022 240.516 272.879 240.615C271.238 241.781 266.849 242.491 266.849 242.491C266.544 243.315 266.469 244.207 266.635 245.07H283.037C282.635 243.685 282.337 242.272 282.145 240.843Z" fill="#263238"/>
<path d="M285.649 153.404C285.649 157.424 285.401 160.7 284.644 163.052C284.644 163.052 249.803 174.221 239.505 164.888C236.35 142.107 243.961 122.892 247.452 114.872C248.002 113.613 248.865 112.516 249.959 111.686C251.054 110.855 252.342 110.319 253.703 110.128C261.612 109.131 269.606 109.01 277.541 109.766C281.227 110.168 284.087 112.018 284.912 117.612C285.138 119.194 285.219 120.793 285.153 122.389C285.113 123.769 285.092 125.123 285.079 126.456C285.025 133.049 285.247 139.079 285.427 144.345C285.561 147.682 285.655 150.717 285.649 153.404Z" fill="#4B0081"/>
<g opacity="0.7">
<path d="M285.649 153.404C285.649 157.424 285.401 160.693 284.637 163.052C284.637 163.052 249.797 174.214 239.505 164.888C236.35 142.107 243.961 122.892 247.452 114.865C248.002 113.607 248.866 112.512 249.96 111.683C251.055 110.853 252.343 110.318 253.703 110.128C261.609 109.131 269.602 109.01 277.535 109.766C281.227 110.168 284.087 112.018 284.905 117.605C285.128 119.187 285.209 120.786 285.146 122.383V122.423C285.106 123.763 285.086 125.136 285.072 126.443C285.072 129.424 285.072 132.292 285.139 135.019C285.206 138.335 285.32 141.444 285.421 144.332C285.561 147.675 285.655 150.71 285.649 153.404Z" fill="white"/>
</g>
<path opacity="0.1" d="M285.174 122.382V122.422C285.134 123.762 285.113 125.136 285.1 126.442C285.1 129.424 285.1 132.291 285.167 135.018C280.819 140.492 270.762 143.058 267.332 140.332C263.901 137.605 259.459 131.682 259.459 131.682C259.459 131.682 262.28 127.575 269.616 121.806C269.831 123.179 285.174 120.56 285.174 122.382Z" fill="black"/>
<path opacity="0.1" d="M254.794 236.196L244.195 236.102C244.105 236.103 244.017 236.069 243.95 236.009C243.883 235.948 243.842 235.864 243.833 235.774L243.351 231.881C243.344 231.827 243.349 231.772 243.366 231.719C243.383 231.667 243.411 231.619 243.449 231.579C243.487 231.539 243.533 231.509 243.585 231.489C243.636 231.469 243.691 231.462 243.746 231.466L255.552 232.263C255.605 232.268 255.657 232.284 255.704 232.31C255.75 232.336 255.791 232.372 255.823 232.415C255.854 232.458 255.877 232.508 255.888 232.56C255.899 232.612 255.898 232.667 255.887 232.719L255.163 235.908C255.144 235.991 255.097 236.066 255.03 236.118C254.963 236.171 254.88 236.198 254.794 236.196Z" fill="white"/>
<path opacity="0.1" d="M282.842 235.732L272.329 237.072C272.24 237.085 272.149 237.065 272.074 237.016C271.999 236.966 271.944 236.891 271.92 236.804L270.909 233.005C270.895 232.952 270.893 232.897 270.903 232.843C270.913 232.79 270.935 232.739 270.967 232.695C270.999 232.65 271.04 232.614 271.088 232.587C271.136 232.561 271.189 232.546 271.244 232.543L283.049 231.712C283.103 231.708 283.157 231.716 283.207 231.734C283.257 231.753 283.303 231.783 283.34 231.821C283.378 231.859 283.407 231.905 283.425 231.956C283.443 232.007 283.45 232.061 283.445 232.114L283.163 235.377C283.162 235.465 283.129 235.55 283.07 235.615C283.01 235.681 282.929 235.722 282.842 235.732Z" fill="white"/>
<path d="M257.637 113.12C257.969 114.245 258.473 115.311 259.131 116.282L259.848 118.694L261.516 118.768L263.426 116.624C263.426 116.624 265.436 115.84 268.33 113.06L267.74 112.148C266.304 113.633 264.698 114.944 262.957 116.055L259.607 116.001C259.189 114.984 258.896 113.92 258.736 112.832L257.637 113.12Z" fill="#4B0081"/>
<path d="M261.529 118.348C260.352 123.42 259.735 128.605 259.686 133.811L257.676 135.413L256.068 133.811C256.068 133.811 258.32 122.85 259.948 118.207L261.529 118.348Z" fill="#4B0081"/>
<path d="M265.736 115.226L257.568 113.43V111.702C257.833 111.627 258.074 111.486 258.267 111.291C258.461 111.096 258.601 110.854 258.674 110.589C258.683 110.546 258.694 110.504 258.707 110.462C258.726 110.103 258.726 109.743 258.707 109.383C258.638 108.585 258.374 107.817 257.937 107.146L267.719 101.042L269.273 100.07C269.314 104.405 269.354 107.829 271.384 109.45C271.893 111.507 269.615 113.765 265.736 115.226Z" fill="#D9877C"/>
<path opacity="0.2" d="M269.287 100.082C269.167 100.41 266.942 110.226 258.674 110.601C258.683 110.558 258.695 110.516 258.708 110.474C258.727 110.114 258.727 109.754 258.708 109.395C258.639 108.597 258.374 107.829 257.938 107.157L267.72 101.054L269.287 100.082Z" fill="black"/>
<path d="M270.199 106.219C267.917 109.497 264.824 112.126 261.221 113.85C261.221 113.85 258.46 111.894 258.722 109.401C258.722 109.401 255.908 111.934 256.042 117.609L259.733 114.433L261.288 115.894L262.99 114.554L265.348 118.332C269.259 116.338 272.465 113.193 274.534 109.321L270.199 106.219Z" fill="#4B0081"/>
<path opacity="0.6" d="M270.199 106.219C267.917 109.497 264.824 112.126 261.221 113.85C261.221 113.85 258.46 111.894 258.722 109.401C258.722 109.401 255.908 111.934 256.042 117.609L259.733 114.433L261.288 115.894L262.99 114.554L265.348 118.332C269.259 116.338 272.465 113.193 274.534 109.321L270.199 106.219Z" fill="white"/>
<path d="M259.371 88.5441C259.371 88.5441 256.463 88.2359 255.867 90.2594C255.271 92.2828 257.006 94.4469 257.006 94.4469L259.82 91.2041L259.371 88.5441Z" fill="#263238"/>
<path d="M261.073 88.0232C266.734 86.7636 271.632 91.4604 270.54 96.5926C269.448 101.725 268.59 105.182 265.046 106.937C257.997 110.415 254.553 107.071 253.971 101.705C253.448 96.8807 255.317 89.303 261.073 88.0232Z" fill="#D9877C"/>
<path opacity="0.2" d="M262.191 97.1282C262.856 96.9621 263.559 97.0656 264.148 97.4163C263.483 97.4507 262.818 97.3527 262.191 97.1282Z" fill="black"/>
<path opacity="0.2" d="M262.152 97.6312C262.461 97.6169 262.769 97.6693 263.056 97.785C263.343 97.9006 263.601 98.0767 263.814 98.3012C263.219 98.198 262.653 97.9696 262.152 97.6312Z" fill="black"/>
<path d="M261.302 97.1891C261.241 97.638 260.947 97.973 260.632 97.9261C260.317 97.8792 260.143 97.4839 260.21 97.0283C260.277 96.5727 260.565 96.2444 260.88 96.2846C261.194 96.3248 261.302 96.7335 261.302 97.1891Z" fill="#263238"/>
<path d="M255.94 96.4804C255.88 96.936 255.585 97.2643 255.27 97.2241C254.955 97.1839 254.788 96.7752 254.848 96.3196C254.908 95.864 255.203 95.5357 255.518 95.5826C255.833 95.6295 256.007 96.0248 255.94 96.4804Z" fill="#263238"/>
<path d="M257.703 96.9609L257.448 100.793C257.108 100.854 256.759 100.841 256.425 100.754C256.091 100.668 255.779 100.509 255.512 100.291C255.939 99.0089 256.695 97.861 257.703 96.9609Z" fill="#DE5753"/>
<path d="M263.024 96.1446C263.067 96.158 263.114 96.158 263.158 96.1446C263.226 96.1243 263.285 96.0779 263.32 96.0153C263.355 95.9527 263.364 95.8788 263.345 95.8096C263.24 95.3941 263.037 95.0099 262.752 94.6893C262.468 94.3688 262.11 94.1211 261.71 93.967C261.677 93.9557 261.642 93.9512 261.606 93.9539C261.571 93.9565 261.537 93.9663 261.506 93.9826C261.474 93.9989 261.447 94.0213 261.424 94.0486C261.402 94.0759 261.385 94.1074 261.375 94.1412C261.354 94.2088 261.361 94.2819 261.394 94.3446C261.426 94.4074 261.482 94.4547 261.55 94.4762C261.864 94.6052 262.144 94.8064 262.366 95.0637C262.589 95.3209 262.747 95.627 262.829 95.957C262.842 96.003 262.866 96.0447 262.9 96.0778C262.935 96.1109 262.977 96.1339 263.024 96.1446Z" fill="#263238"/>
<path d="M254.762 94.7291C254.807 94.7312 254.851 94.7226 254.892 94.7039C254.933 94.6853 254.969 94.6571 254.996 94.6219C255.186 94.3435 255.441 94.1152 255.739 93.9565C256.036 93.7979 256.368 93.7135 256.705 93.7107C256.74 93.7125 256.775 93.7073 256.807 93.6954C256.84 93.6835 256.87 93.6651 256.896 93.6414C256.922 93.6176 256.942 93.589 256.956 93.5572C256.971 93.5254 256.979 93.491 256.98 93.4561C256.983 93.3843 256.959 93.3139 256.911 93.2601C256.863 93.2062 256.797 93.1731 256.725 93.168C256.3 93.1718 255.883 93.2764 255.506 93.4733C255.13 93.6701 254.806 93.9536 254.561 94.3003C254.52 94.3577 254.503 94.4287 254.513 94.4986C254.523 94.5685 254.559 94.6318 254.614 94.6755C254.657 94.7076 254.708 94.7263 254.762 94.7291Z" fill="#263238"/>
<path d="M265.991 99.1321C266.701 97.7251 266.426 95.5877 265.991 93.6648C265.852 93.1674 265.915 92.6352 266.166 92.1837C266.417 91.7322 266.835 91.3977 267.331 91.2528C267.331 91.2528 267.137 89.6716 264.37 89.2428C262.721 88.9748 261.214 88.6465 260.35 89.5376C259.485 90.4287 258.34 90.2813 258.072 89.2428C257.804 88.2043 257.268 86.0402 260.711 85.6114C264.155 85.1826 263.907 87.5075 265.187 87.4606C266.467 87.4137 269.877 88.0502 271.451 91.0652C273.026 94.0802 270.379 98.911 270.379 98.911C270.379 98.911 267.612 99.3532 266.922 100.847C266.232 102.341 265.991 99.1321 265.991 99.1321Z" fill="#263238"/>
<path d="M271.841 101.174C271.108 102.166 270.011 102.826 268.792 103.009C267.171 103.237 266.561 101.73 267.177 100.329C267.733 99.0565 269.254 97.3949 270.802 97.817C271.134 97.9169 271.437 98.097 271.684 98.3415C271.93 98.5859 272.113 98.8872 272.215 99.2188C272.318 99.5504 272.337 99.9021 272.272 100.243C272.207 100.584 272.058 100.903 271.841 101.174Z" fill="#D9877C"/>
<path d="M255.156 103.988C255.156 103.988 255.585 101.978 256.396 101.388C257.207 100.799 259.873 101.388 259.873 101.388L259.833 101.851C259.211 101.739 258.582 101.672 257.95 101.65C257.488 101.703 257.093 104.491 258.232 105.221C259.371 105.951 260.503 105.261 260.516 105.04C260.53 104.907 260.494 104.773 260.416 104.665L261.28 104.39C261.277 104.504 261.305 104.617 261.362 104.717C261.419 104.816 261.502 104.898 261.602 104.953C261.97 105.214 263.284 104.584 263.739 103.72C264.195 102.856 263.25 100.591 262.888 100.517C262.526 100.444 260.671 101.67 260.671 101.67L260.717 101.181C260.717 101.181 262.057 99.9815 262.942 99.9547C263.826 99.9279 264.624 100.839 264.892 100.879C265.16 100.919 266.01 99.1172 266.01 99.1172L267.203 100.296C267.203 100.296 268.376 106.105 264.208 108.015C260.041 109.924 253.93 109.308 254.225 103.077L255.156 103.988Z" fill="#263238"/>
<path d="M255.156 103.988C255.156 103.988 255.585 101.978 256.396 101.388C257.207 100.799 259.873 101.388 259.873 101.388L259.833 101.851C259.211 101.739 258.582 101.672 257.95 101.65C257.488 101.703 257.093 104.491 258.232 105.221C259.371 105.951 260.503 105.261 260.516 105.04C260.53 104.907 260.494 104.773 260.416 104.665L261.28 104.39C261.277 104.504 261.305 104.617 261.362 104.717C261.419 104.816 261.502 104.898 261.602 104.953C261.97 105.214 263.284 104.584 263.739 103.72C264.195 102.856 263.25 100.591 262.888 100.517C262.526 100.444 260.671 101.67 260.671 101.67L260.717 101.181C260.717 101.181 262.057 99.9815 262.942 99.9547C263.826 99.9279 264.624 100.839 264.892 100.879C265.16 100.919 266.01 99.1172 266.01 99.1172L267.203 100.296C267.203 100.296 268.376 106.105 264.208 108.015C260.041 109.924 253.93 109.308 254.225 103.077L255.156 103.988Z" fill="#263238"/>
<path d="M257.951 102.591C258.35 103.244 258.693 103.93 258.976 104.641L259.459 104.547C261.609 104.092 262.494 103.294 262.809 102.537C262.955 102.183 262.999 101.796 262.936 101.418C262.911 101.206 262.85 101 262.755 100.809C261.723 101.613 259.74 102.149 258.668 102.423C258.239 102.537 257.951 102.591 257.951 102.591Z" fill="#263238"/>
<path d="M258.688 102.427L259.009 103.024C261.019 102.588 262.419 102.065 262.955 101.422C262.931 101.21 262.87 101.004 262.775 100.812C261.743 101.65 259.76 102.166 258.688 102.427Z" fill="white"/>
<path d="M259.465 104.545C261.616 104.09 262.5 103.292 262.815 102.535C262.003 102.721 261.222 103.023 260.497 103.433C260.048 103.691 259.688 104.079 259.465 104.545Z" fill="#DE5753"/>
<path d="M285.2 121.203C282.7 126.013 279.639 130.511 276.082 134.603C273.696 137.283 270.594 140.097 266.862 140.74C263.847 141.2 260.779 141.2 257.764 140.74C251.514 139.841 245.385 138.24 239.493 135.97C238.817 135.689 238.26 135.18 237.92 134.532C237.579 133.883 237.477 133.136 237.63 132.42C237.782 131.704 238.181 131.064 238.756 130.611C239.332 130.158 240.047 129.92 240.779 129.94C244.739 130.147 248.766 130.415 252.665 130.556C256.564 130.697 260.779 130.891 264.31 129.933C264.377 129.933 264.759 129.739 264.544 129.765C264.686 129.585 264.838 129.412 265 129.25C268.35 125.357 271.452 119.695 274.232 115.22C275.032 113.765 276.377 112.688 277.971 112.225C279.564 111.762 281.277 111.951 282.731 112.751C284.186 113.55 285.263 114.895 285.726 116.489C286.189 118.083 286 119.795 285.2 121.25V121.203Z" fill="#D9877C"/>
<path d="M240.303 130.025L241.315 133.489C241.013 137.275 236.216 136.048 236.216 136.048L233.67 136.397C233.216 136.429 232.765 136.299 232.397 136.031C232.029 135.762 231.768 135.372 231.66 134.93L230.936 132.511C230.76 132.022 230.779 131.484 230.99 131.01C231.201 130.535 231.588 130.161 232.069 129.965L234.213 129.295C234.836 129.104 235.496 129.07 236.136 129.194L240.303 130.025Z" fill="#D9877C"/>
<path d="M279.712 110.227C288.603 113.349 287.832 120.022 285.44 125.154C283.176 130.012 273.206 140.337 273.206 140.337L262.955 128.9C262.955 128.9 268.536 123.292 271.471 118.179C274.405 113.067 279.712 110.227 279.712 110.227Z" fill="#4B0081"/>
<path opacity="0.7" d="M279.712 110.227C288.603 113.349 287.832 120.022 285.44 125.154C283.176 130.012 273.206 140.337 273.206 140.337L262.955 128.9C262.955 128.9 268.536 123.292 271.471 118.179C274.405 113.067 279.712 110.227 279.712 110.227Z" fill="white"/>
<path d="M262.205 129.578L263.813 127.461L274.386 139.903L271.136 141.323L262.205 129.578Z" fill="#4B0081"/>
<path opacity="0.6" d="M262.205 129.578L263.813 127.461L274.386 139.903L271.136 141.323L262.205 129.578Z" fill="white"/>
<path d="M232.845 114.906L230.835 115.73C230.669 115.803 230.491 115.842 230.31 115.843C230.128 115.845 229.949 115.81 229.782 115.741C229.615 115.671 229.463 115.569 229.337 115.439C229.21 115.309 229.111 115.155 229.046 114.987C228.974 114.821 228.937 114.643 228.936 114.463C228.934 114.282 228.969 114.104 229.039 113.937C229.108 113.771 229.211 113.62 229.34 113.494C229.469 113.368 229.622 113.27 229.79 113.204L231.8 112.38C231.965 112.308 232.144 112.271 232.324 112.27C232.504 112.268 232.683 112.303 232.849 112.373C233.016 112.442 233.166 112.545 233.292 112.674C233.418 112.803 233.517 112.956 233.582 113.124C233.654 113.289 233.692 113.467 233.694 113.647C233.695 113.827 233.661 114.005 233.592 114.172C233.523 114.338 233.422 114.489 233.293 114.615C233.165 114.741 233.013 114.84 232.845 114.906Z" fill="#263238"/>
<path d="M217.638 137.925C217.564 137.937 217.49 137.937 217.417 137.925C217.333 137.896 217.257 137.85 217.191 137.791C217.125 137.732 217.072 137.661 217.034 137.581C216.996 137.502 216.974 137.415 216.97 137.327C216.965 137.239 216.978 137.151 217.008 137.068L223.708 118.307C223.931 117.686 224.279 117.117 224.731 116.635C225.183 116.153 225.728 115.769 226.334 115.507L229.597 114.113C229.757 114.06 229.93 114.068 230.084 114.136C230.238 114.204 230.36 114.328 230.426 114.483C230.493 114.637 230.499 114.811 230.444 114.97C230.388 115.128 230.275 115.26 230.126 115.339L226.864 116.74C226.427 116.928 226.034 117.203 225.708 117.549C225.382 117.895 225.13 118.303 224.967 118.75L218.267 137.51C218.216 137.634 218.129 137.74 218.017 137.815C217.904 137.889 217.772 137.927 217.638 137.925Z" fill="#263238"/>
<g opacity="0.3">
<path d="M217.638 137.925C217.564 137.937 217.49 137.937 217.417 137.925C217.333 137.896 217.257 137.85 217.191 137.791C217.125 137.732 217.072 137.661 217.034 137.581C216.996 137.502 216.974 137.415 216.97 137.327C216.965 137.239 216.978 137.151 217.008 137.068L223.708 118.307C223.931 117.686 224.279 117.117 224.731 116.635C225.183 116.153 225.728 115.769 226.334 115.507L229.597 114.113C229.757 114.06 229.93 114.068 230.084 114.136C230.238 114.204 230.36 114.328 230.426 114.483C230.493 114.637 230.499 114.811 230.444 114.97C230.388 115.128 230.275 115.26 230.126 115.339L226.864 116.74C226.427 116.928 226.034 117.203 225.708 117.549C225.382 117.895 225.13 118.303 224.967 118.75L218.267 137.51C218.216 137.634 218.129 137.74 218.017 137.815C217.904 137.889 217.772 137.927 217.638 137.925Z" fill="white"/>
</g>
<path d="M219.447 114.905L217.437 115.729C217.271 115.802 217.092 115.84 216.911 115.842C216.73 115.844 216.55 115.809 216.383 115.739C216.216 115.67 216.065 115.567 215.938 115.438C215.812 115.308 215.713 115.154 215.648 114.985C215.576 114.82 215.538 114.642 215.537 114.461C215.536 114.281 215.571 114.102 215.64 113.936C215.71 113.769 215.812 113.619 215.941 113.493C216.07 113.367 216.223 113.268 216.391 113.203L218.402 112.379C218.567 112.306 218.746 112.268 218.927 112.266C219.108 112.264 219.288 112.299 219.455 112.368C219.622 112.438 219.773 112.54 219.9 112.67C220.026 112.8 220.125 112.954 220.19 113.123C220.262 113.288 220.3 113.466 220.301 113.646C220.302 113.827 220.267 114.005 220.198 114.172C220.128 114.338 220.026 114.489 219.897 114.615C219.768 114.741 219.615 114.839 219.447 114.905Z" fill="#263238"/>
<path d="M204.236 137.925C204.161 137.938 204.084 137.938 204.008 137.925C203.841 137.865 203.705 137.74 203.63 137.58C203.554 137.419 203.546 137.235 203.606 137.068L210.306 118.307C210.529 117.686 210.878 117.117 211.329 116.635C211.781 116.153 212.327 115.769 212.933 115.507L216.196 114.113C216.355 114.06 216.529 114.068 216.682 114.136C216.836 114.204 216.958 114.328 217.025 114.483C217.092 114.637 217.098 114.811 217.042 114.97C216.987 115.128 216.873 115.26 216.725 115.339L213.462 116.74C213.025 116.926 212.63 117.201 212.304 117.547C211.978 117.892 211.726 118.302 211.566 118.75L204.866 137.51C204.815 137.634 204.727 137.74 204.615 137.815C204.503 137.889 204.371 137.927 204.236 137.925Z" fill="#263238"/>
<g opacity="0.3">
<path d="M204.236 137.925C204.161 137.938 204.084 137.938 204.008 137.925C203.841 137.865 203.705 137.74 203.63 137.58C203.554 137.419 203.546 137.235 203.606 137.068L210.306 118.307C210.529 117.686 210.878 117.117 211.329 116.635C211.781 116.153 212.327 115.769 212.933 115.507L216.196 114.113C216.355 114.06 216.529 114.068 216.682 114.136C216.836 114.204 216.958 114.328 217.025 114.483C217.092 114.637 217.098 114.811 217.042 114.97C216.987 115.128 216.873 115.26 216.725 115.339L213.462 116.74C213.025 116.926 212.63 117.201 212.304 117.547C211.978 117.892 211.726 118.302 211.566 118.75L204.866 137.51C204.815 137.634 204.727 137.74 204.615 137.815C204.503 137.889 204.371 137.927 204.236 137.925Z" fill="white"/>
</g>
<path d="M189.684 139.467V129.578L217.542 139.568H258.707V149.45H217.542L189.684 139.467Z" fill="#263238"/>
<path opacity="0.2" d="M189.684 139.467V129.578L217.542 139.568H258.707V149.45H217.542L189.684 139.467Z" fill="white"/>
<path d="M256.162 148.09L230.32 138.824V245.073H256.162V148.09Z" fill="#263238"/>
<path d="M230.314 138.824H192.131V245.073H230.314V138.824Z" fill="#263238"/>
<path opacity="0.3" d="M230.314 138.824H192.131V245.073H230.314V138.824Z" fill="white"/>
<path opacity="0.2" d="M256.162 148.09L230.32 138.824V245.073H256.162V148.09Z" fill="white"/>
<path opacity="0.2" d="M226.46 144.727H194.803V235.378H226.46V144.727Z" fill="black"/>
<path opacity="0.2" d="M230.314 138.684H192.131V140.339H230.314V138.684Z" fill="black"/>
<path d="M258.386 238.547H189.684V245.073H258.386V238.547Z" fill="#263238"/>
<path d="M258.707 139.568V149.45L230.849 139.467H189.684V129.578H230.849L258.707 139.568Z" fill="#263238"/>
<path opacity="0.3" d="M258.707 139.568V149.45L230.849 139.467H189.684V129.578H230.849L258.707 139.568Z" fill="white"/>
<path opacity="0.2" d="M230.849 129.578H189.684V139.461H230.849V129.578Z" fill="white"/>
<path opacity="0.2" d="M230.942 238.547H189.684V241.368H228.102V239.478L230.942 238.547Z" fill="white"/>
<path opacity="0.2" d="M229.336 241.811H258.387V240.719L229.336 241.811Z" fill="black"/>
<path opacity="0.3" d="M258.386 238.547H189.684V245.073H258.386V238.547Z" fill="white"/>
<path d="M262.5 241.809H185.35V245.072H262.5V241.809Z" fill="#263238"/>
<path opacity="0.2" d="M225.778 241.809H185.35V244.864H225.778V241.809Z" fill="white"/>
<path opacity="0.3" d="M262.5 241.809H185.35V245.072H262.5V241.809Z" fill="white"/>
<path d="M75.8643 241.387L75.2144 247.832L74.6851 253.038H69.7539V241.387H75.8643Z" fill="#E4897B"/>
<path opacity="0.2" d="M75.8643 241.387L75.2144 247.832L69.7539 248.167V241.387H75.8643Z" fill="black"/>
<path d="M75.1958 249.93H69.0452C68.9382 249.93 68.8346 249.967 68.7526 250.036C68.6705 250.104 68.6152 250.2 68.5963 250.305L67.7722 255.169C67.7549 255.291 67.764 255.415 67.7988 255.533C67.8337 255.651 67.8935 255.76 67.9742 255.853C68.0549 255.945 68.1546 256.02 68.2666 256.071C68.3785 256.121 68.5001 256.148 68.6231 256.147C70.7671 256.107 71.8056 255.98 74.5124 255.98C76.174 255.98 79.6111 256.154 81.8825 256.154C84.1538 256.154 84.3615 253.883 83.4101 253.675C79.1421 252.757 77.4872 251.484 76.04 250.271C75.8048 250.066 75.5076 249.946 75.1958 249.93Z" fill="#263238"/>
<path d="M66.4922 200.399L68.9712 247.125L76.6092 246.583C76.6092 246.583 82.8872 203.635 80.0329 199.334C77.1787 195.033 66.4922 200.399 66.4922 200.399Z" fill="black"/>
<path d="M96.6358 241.387L95.9859 247.832L95.4566 253.038H90.5254V241.387H96.6358Z" fill="#E4897B"/>
<path opacity="0.2" d="M96.6358 241.387L95.9859 247.832L90.5254 248.167V241.387H96.6358Z" fill="black"/>
<path d="M68.0052 182.179L72.2798 187.974C72.2798 187.974 91.7099 186.521 97.8337 190.608C103.958 194.695 96.7684 246.586 96.7684 246.586L89.2577 247.256C89.2577 247.256 88.2661 202.487 87.3482 202.239C86.4303 201.991 51.2484 206.132 46.2301 202.239C41.2118 198.346 45.0442 180.457 45.0442 180.457L68.0052 182.179Z" fill="#263238"/>
<path d="M95.9654 249.93H89.8147C89.7081 249.931 89.6052 249.969 89.5234 250.037C89.4416 250.106 89.3859 250.2 89.3658 250.305L88.5417 255.169C88.5244 255.291 88.5335 255.415 88.5684 255.533C88.6032 255.651 88.663 255.76 88.7437 255.853C88.8245 255.945 88.9242 256.02 89.0361 256.071C89.1481 256.121 89.2697 256.148 89.3926 256.147C91.5433 256.107 92.5752 255.98 95.282 255.98C96.9436 255.98 100.381 256.154 102.652 256.154C104.923 256.154 105.131 253.883 104.18 253.675C99.9117 252.757 98.2568 251.484 96.8431 250.271C96.5996 250.058 96.2889 249.937 95.9654 249.93Z" fill="#263238"/>
<path d="M38.3652 162.822L43.6114 165.355L46.9011 166.936L48.9111 162.186L50.9211 157.207L49.1791 148.129C43.8124 150.447 38.3652 162.822 38.3652 162.822Z" fill="#4B0081"/>
<path opacity="0.2" d="M43.6113 165.358L46.901 166.939L48.9111 162.189C48.5024 159.509 48.1607 157.211 48.1607 157.211C48.1607 157.211 44.288 160.615 43.6113 165.358Z" fill="black"/>
<path d="M72.877 134.267C72.877 134.656 73.0512 134.977 73.3058 134.991C73.5604 135.004 73.7748 134.696 73.7949 134.321C73.815 133.945 73.6207 133.604 73.3728 133.59C73.1249 133.577 72.8971 133.878 72.877 134.267Z" fill="#263238"/>
<path d="M73.0316 134.977C73.4392 136.184 74.0119 137.33 74.7334 138.38C74.4585 138.557 74.1482 138.673 73.8242 138.718C73.5003 138.763 73.1703 138.737 72.8574 138.641L73.0316 134.977Z" fill="#DE5753"/>
<path d="M71.5574 132.045C71.5029 132.03 71.4553 131.997 71.4234 131.951C71.3905 131.9 71.3791 131.838 71.3917 131.779C71.4043 131.72 71.4398 131.669 71.4904 131.636C71.7895 131.43 72.1339 131.299 72.4944 131.255C72.8548 131.211 73.2205 131.254 73.5607 131.381C73.5886 131.393 73.6138 131.41 73.6348 131.432C73.6558 131.453 73.6722 131.479 73.6828 131.507C73.6935 131.536 73.6983 131.566 73.6969 131.596C73.6954 131.626 73.6879 131.656 73.6746 131.683C73.6484 131.737 73.6026 131.779 73.5465 131.8C73.4904 131.821 73.4284 131.82 73.3731 131.797C73.1026 131.701 72.8132 131.672 72.529 131.71C72.2447 131.748 71.9737 131.854 71.7383 132.018C71.712 132.035 71.6821 132.047 71.6508 132.051C71.6195 132.056 71.5876 132.054 71.5574 132.045Z" fill="#263238"/>
<path d="M72.9228 140.218C72.762 140.75 72.537 141.261 72.2528 141.739C71.7517 142.597 71.0649 143.332 70.2428 143.89C69.3974 144.471 68.426 144.843 67.4087 144.975C66.429 145.105 65.4321 144.99 64.5081 144.639C63.5841 144.288 62.7619 143.713 62.1157 142.965C59.8243 140.406 60.032 137.605 59.965 132.821C59.9368 131.711 60.1929 130.611 60.7089 129.628C61.2248 128.644 61.9837 127.808 62.9133 127.2C63.8429 126.592 64.9125 126.232 66.0205 126.153C67.1286 126.074 68.2384 126.28 69.2445 126.751C73.8341 128.882 74.1423 135.984 72.9228 140.218Z" fill="#E4897B"/>
<path d="M60.1798 140.647C61.8079 142.222 69.6671 140.339 69.6403 134.463C69.6403 134.463 73.0841 131.95 73.6603 128.373C74.2365 124.795 72.1863 122.838 69.4326 122.946C67.0072 123.039 66.7526 124.286 66.7526 124.286C66.7526 124.286 55.7913 122.845 56.9504 127.783C51.4296 131.394 58.1497 138.691 60.1798 140.647Z" fill="#263238"/>
<path d="M67.543 134.943C67.5635 136.132 67.9783 137.279 68.7222 138.206C69.7071 139.419 70.8394 138.762 71.1007 137.362C71.3352 136.102 71.1007 133.958 69.8612 133.255C68.6217 132.551 67.5363 133.516 67.543 134.943Z" fill="#E4897B"/>
<path opacity="0.2" d="M72.2674 141.74C71.7662 142.597 71.0795 143.332 70.2574 143.89C69.412 144.471 68.4406 144.843 67.4233 144.976C66.8469 144.521 66.307 144.021 65.8086 143.482L67.2491 141.324C67.2491 141.324 69.8755 143.368 72.2674 141.74Z" fill="black"/>
<path d="M58.459 148.129L60.8643 141.034C60.8643 141.034 64.9781 139.265 68.4085 141.704L68.1137 147.064L58.459 148.129Z" fill="#E4897B"/>
<path d="M55.791 146.588L57.131 144.578C57.131 144.578 67.2347 143.962 71.4959 148.598C71.4959 148.585 61.6401 150.628 55.791 146.588Z" fill="#4B0081"/>
<path opacity="0.2" d="M55.791 146.588L57.131 144.578C57.131 144.578 67.2347 143.962 71.4959 148.598C71.4959 148.585 61.6401 150.628 55.791 146.588Z" fill="black"/>
<path d="M75.5169 155.514C75.5169 155.621 75.4432 155.735 75.403 155.856C74.4985 158.583 73.7347 161.256 73.0915 163.795C72.6426 165.558 72.2473 167.253 71.8922 168.867C70.2976 176.237 69.6477 181.845 69.1318 183.708C65.3798 183.708 51.2695 183.661 43.5645 183.634C44.6767 160.606 49.1724 148.124 49.1724 148.124C49.1724 148.124 55.8724 144.774 67.162 146.73C71.2423 147.434 76.743 149.745 76.743 149.745C75.3092 152.901 76.5554 152.412 75.5169 155.514Z" fill="#4B0081"/>
<path opacity="0.2" d="M75.5161 155.516C75.5161 155.623 75.4424 155.737 75.4022 155.857C74.4977 158.584 73.7339 161.258 73.0907 163.797C72.6418 165.559 72.2465 167.254 71.8914 168.869C70.1427 164.273 71.1544 156.775 71.1544 156.775L75.5161 155.516Z" fill="black"/>
<path d="M70.1035 151.233C73.9225 146.885 78.3044 142.463 82.1636 138.154C83.3696 135.474 84.0128 131.454 84.7498 128.259L86.7598 118.57L90.0763 118.905C90.0763 122.255 89.9356 125.605 89.6609 128.955C89.2991 132.701 89.0579 136.272 87.9189 140.004C87.7584 140.494 87.545 140.966 87.2824 141.411C85.5566 143.825 83.7072 146.149 81.7415 148.372C79.5774 150.911 77.353 153.377 75.0414 155.796L70.1035 151.233Z" fill="#DC897C"/>
<path d="M86.5714 120.239L83.543 116.393L88.8427 115.207C88.8427 115.207 91.3351 118.805 89.4256 120.011L86.5714 120.239Z" fill="#E4897B"/>
<path d="M84.7088 112.004L87.8712 112.098L88.8427 115.2L83.543 116.386L84.7088 112.004Z" fill="#E4897B"/>
<path d="M68.1401 156.472C67.0882 152.405 70.8737 149.323 78.1901 141.363L85.0174 146.542C85.0174 146.542 80.4815 154.623 76.5754 156.874C72.6693 159.125 68.1401 156.472 68.1401 156.472Z" fill="#4B0081"/>
<path d="M60.2879 208.551L58.834 256.155H60.8909L63.2828 208.551H60.2879Z" fill="#263238"/>
<path d="M67.1621 209.638H85.5336L91.3492 256.156H93.7344L88.3744 206.328L67.1621 206.824V209.638Z" fill="#263238"/>
<path d="M65.8216 206.824H39.7786H38.4386L32.7168 256.157H34.0099L34.2645 254.368L34.0568 256.157H35.3499L41.9293 209.752H63.3426L63.5101 256.157H64.8501H64.9506H66.2907L67.1617 206.824H65.8216Z" fill="#263238"/>
<path opacity="0.2" d="M64.9506 256.157L65.8216 206.824H38.4386L32.7168 256.157H34.0099L40.5893 209.752H63.3426L63.5101 256.157H64.9506Z" fill="white"/>
<path opacity="0.2" d="M85.5332 209.637H87.034L92.7089 256.155H91.3488L85.5332 209.637Z" fill="white"/>
<path d="M67.9861 199.472L62.2173 151.707C62.0681 150.462 61.4675 149.314 60.529 148.482C59.5906 147.65 58.3796 147.191 57.1253 147.191H30.2917C30.131 147.191 29.9719 147.223 29.8235 147.285C29.6751 147.347 29.5404 147.437 29.4271 147.551C29.3137 147.665 29.2241 147.8 29.1632 147.949C29.1023 148.098 29.0714 148.257 29.0723 148.418V198.132C29.0723 200.619 30.0605 203.005 31.8196 204.764C33.5787 206.524 35.9646 207.512 38.4523 207.512H92.133C92.2893 207.512 92.4393 207.45 92.5499 207.339C92.6605 207.229 92.7226 207.079 92.7226 206.922C92.7208 205.809 92.2774 204.742 91.4898 203.956C90.7022 203.17 89.6347 202.728 88.5217 202.728H71.6309C70.7292 202.729 69.8589 202.397 69.1864 201.796C68.514 201.195 68.0866 200.368 67.9861 199.472Z" fill="#263238"/>
<path opacity="0.7" d="M92.7089 206.902C92.7071 207.058 92.6445 207.207 92.5343 207.317C92.4241 207.427 92.2751 207.49 92.1193 207.492H38.4386C35.9509 207.492 33.565 206.503 31.8059 204.744C30.0468 202.985 29.0586 200.599 29.0586 198.112V148.411C29.0593 148.199 29.1147 147.992 29.2194 147.808C29.3253 147.62 29.4791 147.464 29.6651 147.356C29.8512 147.248 30.0627 147.191 30.278 147.191H57.125C58.3797 147.189 59.5915 147.648 60.5302 148.48C61.469 149.313 62.0692 150.461 62.217 151.707L67.9858 199.472C68.0924 200.363 68.5225 201.184 69.1943 201.779C69.8661 202.375 70.733 202.703 71.6306 202.701H88.508C89.6216 202.703 90.6891 203.146 91.4765 203.934C92.264 204.721 92.7071 205.788 92.7089 206.902Z" fill="white"/>
<path opacity="0.2" d="M72.6088 207.513H38.4386C35.9509 207.513 33.565 206.524 31.8059 204.765C30.0468 203.006 29.0586 200.62 29.0586 198.133V148.412C29.0593 148.2 29.1147 147.992 29.2194 147.809H56.0195C57.0317 147.808 58.008 148.184 58.7593 148.862C59.5107 149.54 59.9836 150.473 60.0864 151.48L65.1048 200.739C65.2897 202.599 66.1608 204.323 67.5482 205.575C68.9356 206.828 70.7398 207.518 72.6088 207.513Z" fill="black"/>
<path d="M145.585 240.82L146.53 247.226L147.293 252.411L142.51 253.617L139.662 242.314L145.585 240.82Z" fill="#EBB376"/>
<path opacity="0.2" d="M145.585 240.82L146.53 247.226L141.317 248.887L139.662 242.314L145.585 240.82Z" fill="black"/>
<path d="M147.776 249.93H141.625C141.518 249.93 141.415 249.967 141.333 250.036C141.251 250.104 141.195 250.2 141.176 250.305L140.352 255.169C140.335 255.291 140.344 255.415 140.379 255.533C140.414 255.651 140.474 255.76 140.554 255.853C140.635 255.945 140.735 256.02 140.847 256.071C140.959 256.121 141.08 256.148 141.203 256.147C143.347 256.107 144.386 255.98 147.092 255.98C148.754 255.98 152.191 256.154 154.463 256.154C156.734 256.154 156.942 253.883 155.99 253.675C151.722 252.757 150.067 251.484 148.62 250.271C148.385 250.066 148.088 249.946 147.776 249.93Z" fill="#263238"/>
<path d="M124.93 202.979L139.362 247.494L146.618 245.035C146.618 245.035 141.606 201.92 137.747 198.497C133.888 195.073 124.93 202.979 124.93 202.979Z" fill="#4B0081"/>
<path opacity="0.3" d="M147.776 249.93H141.625C141.518 249.93 141.415 249.967 141.333 250.036C141.251 250.104 141.195 250.2 141.176 250.305L140.352 255.169C140.335 255.291 140.344 255.415 140.379 255.533C140.414 255.651 140.474 255.76 140.554 255.853C140.635 255.945 140.735 256.02 140.847 256.071C140.959 256.121 141.08 256.148 141.203 256.147C143.347 256.107 144.386 255.98 147.092 255.98C148.754 255.98 152.191 256.154 154.463 256.154C156.734 256.154 156.942 253.883 155.99 253.675C151.722 252.757 150.067 251.484 148.62 250.271C148.385 250.066 148.088 249.946 147.776 249.93Z" fill="white"/>
<path opacity="0.2" d="M124.93 202.979L139.362 247.494L146.618 245.035C146.618 245.035 141.606 201.92 137.747 198.497C133.888 195.073 124.93 202.979 124.93 202.979Z" fill="black"/>
<path d="M130.201 167.312L133.384 163.895L135.286 168.712C135.286 168.712 132.265 171.593 130.844 169.971L130.201 167.312Z" fill="#EBB376"/>
<path d="M137.686 164.338L138.068 167.333L135.288 168.707L133.385 163.883L137.686 164.338Z" fill="#EBB376"/>
<g opacity="0.1">
<path d="M130.201 167.312L133.384 163.895L135.286 168.712C135.286 168.712 132.265 171.593 130.844 169.971L130.201 167.312Z" fill="black"/>
<path d="M137.684 164.338L138.066 167.333L135.286 168.707L133.383 163.883L137.684 164.338Z" fill="black"/>
</g>
<path d="M133.679 154.262C136.567 159.005 139.254 163.595 141.364 168.794C143.086 172.814 140.245 175.333 136.292 174.771C131.951 174.194 128.158 172.687 124.266 170.938L125.251 167.756C127.843 168.124 130.477 168.526 133.002 168.821C134.557 168.955 136.038 169.223 137.378 168.941C137.049 168.995 136.661 169.169 136.185 169.873C135.886 170.372 135.774 170.961 135.87 171.534C135.91 171.715 135.709 171.206 135.669 171.146C133.378 166.737 130.383 162.094 127.924 157.746L133.679 154.262Z" fill="#E7B278"/>
<path d="M160.507 241.391L159.857 247.836L159.328 253.042H154.396V241.391H160.507Z" fill="#EBB376"/>
<path opacity="0.2" d="M160.507 241.391L159.857 247.836L154.396 248.171V241.391H160.507Z" fill="black"/>
<path d="M131.876 182.179L136.151 187.974C136.151 187.974 155.548 186.521 161.705 190.608C167.862 194.695 160.64 246.586 160.64 246.586L153.122 247.256C153.122 247.256 152.13 202.487 151.219 202.239C150.308 201.991 115.12 206.132 110.101 202.239C105.083 198.346 108.915 180.457 108.915 180.457L131.876 182.179Z" fill="#4B0081"/>
<path d="M122.53 131.912C122.563 132.3 122.791 132.582 123.045 132.582C123.3 132.582 123.474 132.227 123.441 131.838C123.407 131.449 123.179 131.168 122.925 131.168C122.67 131.168 122.496 131.523 122.53 131.912Z" fill="#263238"/>
<path d="M122.758 132.594C123.318 133.738 124.033 134.8 124.882 135.749C124.634 135.961 124.343 136.115 124.03 136.202C123.716 136.289 123.387 136.306 123.066 136.252L122.758 132.594Z" fill="#D58745"/>
<path d="M120.93 129.882C120.885 129.877 120.843 129.859 120.809 129.831C120.774 129.802 120.749 129.764 120.736 129.721C120.723 129.678 120.723 129.632 120.736 129.589C120.749 129.547 120.775 129.508 120.809 129.48C121.079 129.239 121.401 129.066 121.751 128.975C122.101 128.885 122.467 128.878 122.819 128.957C122.877 128.974 122.925 129.014 122.954 129.066C122.983 129.119 122.99 129.181 122.973 129.239C122.955 129.295 122.915 129.343 122.863 129.371C122.811 129.4 122.75 129.408 122.692 129.393C122.411 129.335 122.119 129.344 121.842 129.419C121.565 129.495 121.31 129.635 121.097 129.828C121.051 129.867 120.99 129.886 120.93 129.882Z" fill="#263238"/>
<path d="M123.348 137.835C123.268 138.383 123.119 138.918 122.906 139.429C122.519 140.346 121.933 141.166 121.191 141.828C120.424 142.514 119.505 143.01 118.511 143.275C117.557 143.534 116.555 143.552 115.593 143.326C114.631 143.1 113.741 142.638 113.003 141.982C110.397 139.744 110.229 136.937 109.539 132.207C109.365 131.109 109.475 129.986 109.857 128.943C110.24 127.9 110.882 126.972 111.724 126.247C112.566 125.523 113.578 125.025 114.667 124.801C115.755 124.578 116.882 124.636 117.941 124.971C122.772 126.445 124.011 133.446 123.348 137.835Z" fill="#EBB376"/>
<path opacity="0.2" d="M122.906 139.395C122.519 140.312 121.933 141.131 121.19 141.793C120.423 142.48 119.505 142.976 118.51 143.24C117.881 142.864 117.281 142.441 116.715 141.974L117.854 139.642C117.854 139.642 120.748 141.317 122.906 139.395Z" fill="black"/>
<path d="M117.062 137.244C116.767 139.482 113.391 138.155 111.2 139.468C111.2 139.468 107.414 137.706 105.371 128.219C104.151 122.577 116.372 122.008 116.372 122.008C116.372 122.008 116.533 120.668 114.891 119.871C114.891 119.871 117.853 119.737 118.911 122.048C119.048 121.685 119.093 121.293 119.041 120.909C118.99 120.524 118.844 120.158 118.617 119.844C118.617 119.844 124.211 121.988 120.908 126.919C120.908 126.919 118.978 126.457 119.568 127.589C120.158 128.721 123.226 131.857 118.463 134.959C117.786 135.57 117.3 136.363 117.062 137.244Z" fill="#263238"/>
<path d="M117.332 133.283C117.508 134.457 118.069 135.538 118.926 136.359C120.059 137.431 121.097 136.627 121.171 135.213C121.245 133.933 120.735 131.863 119.402 131.3C118.069 130.737 117.131 131.863 117.332 133.283Z" fill="#EBB376"/>
<path d="M120.755 149.285L119.623 141.185C119.623 141.185 116.789 137.219 111.743 139.443L111.562 146.143L120.755 149.285Z" fill="#EBB376"/>
<path d="M108.936 146.592L110.276 144.582C110.276 144.582 120.379 143.965 124.634 148.602C124.62 148.589 114.785 150.632 108.936 146.592Z" fill="#4B0081"/>
<path opacity="0.5" d="M108.936 146.592L110.276 144.582C110.276 144.582 120.379 143.965 124.634 148.602C124.62 148.589 114.785 150.632 108.936 146.592Z" fill="white"/>
<path d="M130.241 155.925C130.241 156.032 130.241 156.146 130.241 156.267C130.241 158.947 130.328 161.593 130.509 164.092C130.63 165.834 130.784 167.503 130.952 169.097C131.742 176.34 132.921 181.894 133.008 183.737C129.25 183.737 115.133 183.69 107.421 183.67C101.056 160.95 101.505 148.649 101.505 148.649C101.505 148.649 107.093 145.359 119.046 147.275C123.347 147.945 129.598 150.237 129.598 150.237C129.183 153.325 130.275 152.843 130.241 155.925Z" fill="#4B0081"/>
<g opacity="0.7">
<path d="M133.003 183.71C129.244 183.71 115.12 183.663 107.408 183.643C101.05 160.923 101.499 148.622 101.499 148.622C101.499 148.622 107.087 145.332 119.04 147.248C123.341 147.918 129.592 150.216 129.592 150.216C129.184 153.325 130.262 152.843 130.262 155.904C130.262 156.012 130.262 156.126 130.262 156.239C130.262 158.551 130.323 160.822 130.463 163C130.463 163.362 130.503 163.717 130.53 164.072C130.611 165.238 130.704 166.377 130.812 167.482C130.865 168.025 130.919 168.554 130.972 169.077C131.736 176.313 132.915 181.874 133.003 183.71Z" fill="white"/>
</g>
<path d="M159.836 249.93H153.686C153.579 249.93 153.475 249.967 153.393 250.036C153.311 250.104 153.256 250.2 153.237 250.305L152.413 255.169C152.396 255.291 152.405 255.415 152.439 255.533C152.474 255.651 152.534 255.76 152.615 255.853C152.696 255.945 152.795 256.02 152.907 256.071C153.019 256.121 153.141 256.148 153.264 256.147C155.408 256.107 156.446 255.98 159.153 255.98C160.815 255.98 164.252 256.154 166.523 256.154C168.794 256.154 169.002 253.883 168.051 253.675C163.783 252.757 162.128 251.484 160.681 250.271C160.446 250.065 160.148 249.945 159.836 249.93Z" fill="#263238"/>
<path opacity="0.4" d="M159.836 249.93H153.686C153.579 249.93 153.475 249.967 153.393 250.036C153.311 250.104 153.256 250.2 153.237 250.305L152.413 255.169C152.396 255.291 152.405 255.415 152.439 255.533C152.474 255.651 152.534 255.76 152.615 255.853C152.696 255.945 152.795 256.02 152.907 256.071C153.019 256.121 153.141 256.148 153.264 256.147C155.408 256.107 156.446 255.98 159.153 255.98C160.815 255.98 164.252 256.154 166.523 256.154C168.794 256.154 169.002 253.883 168.051 253.675C163.783 252.757 162.128 251.484 160.681 250.271C160.446 250.065 160.148 249.945 159.836 249.93Z" fill="white"/>
<path opacity="0.2" d="M130.786 167.482C128.776 166.497 127.295 161.727 127.295 161.727C128.372 162.073 129.423 162.498 130.437 163C130.437 163.361 130.477 163.716 130.504 164.072C130.585 165.237 130.652 166.376 130.786 167.482Z" fill="black"/>
<path d="M129.592 150.207C133.793 151.386 139.695 164.559 139.695 164.559C139.695 164.559 137.216 168.639 133.451 168.867L126.697 161.718L129.592 150.207Z" fill="#4B0081"/>
<path opacity="0.7" d="M129.592 150.207C133.793 151.386 139.695 164.559 139.695 164.559C139.695 164.559 137.216 168.639 133.451 168.867L126.697 161.718L129.592 150.207Z" fill="white"/>
<path d="M124.159 208.551L122.705 256.155H124.762L127.154 208.551H124.159Z" fill="#263238"/>
<path d="M131.025 209.638H149.404L155.219 256.156H157.604L152.244 206.328L131.025 206.824V209.638Z" fill="#263238"/>
<path d="M129.686 206.824H103.65H102.31L96.5879 256.157H97.881L98.1356 254.368L97.9279 256.157H99.221L105.8 209.752H127.214L127.381 256.157H128.721H128.822H130.162L131.026 206.824H129.686Z" fill="#263238"/>
<path opacity="0.2" d="M128.822 256.157L129.686 206.824H102.31L96.5879 256.157H97.881L104.46 209.752H127.207L127.381 256.157H128.822Z" fill="white"/>
<path opacity="0.2" d="M149.404 209.637H150.905L156.573 256.155H155.22L149.404 209.637Z" fill="white"/>
<path d="M131.857 199.472L126.088 151.707C125.938 150.462 125.337 149.316 124.399 148.484C123.461 147.652 122.25 147.192 120.996 147.191H94.1628C94.0021 147.191 93.843 147.223 93.6946 147.285C93.5462 147.347 93.4115 147.437 93.2982 147.551C93.1848 147.665 93.0951 147.8 93.0343 147.949C92.9734 148.098 92.9425 148.257 92.9434 148.418V198.132C92.9434 200.619 93.9316 203.005 95.6907 204.764C97.4498 206.524 99.8357 207.512 102.323 207.512H156.004C156.081 207.512 156.158 207.496 156.229 207.467C156.3 207.437 156.364 207.394 156.419 207.339C156.473 207.284 156.516 207.219 156.545 207.147C156.573 207.076 156.588 206.999 156.587 206.922C156.587 205.81 156.145 204.743 155.359 203.956C154.572 203.17 153.505 202.728 152.393 202.728H135.509C134.606 202.73 133.734 202.399 133.06 201.798C132.386 201.197 131.958 200.369 131.857 199.472Z" fill="#263238"/>
<path opacity="0.7" d="M156.58 206.902C156.578 207.058 156.516 207.207 156.405 207.317C156.295 207.427 156.146 207.49 155.99 207.492H102.31C99.822 207.492 97.4361 206.503 95.677 204.744C93.9179 202.985 92.9297 200.599 92.9297 198.112V148.411C92.9304 148.199 92.9858 147.992 93.0905 147.808C93.1963 147.62 93.3502 147.464 93.5362 147.356C93.7223 147.248 93.9338 147.191 94.1491 147.191H120.983C122.237 147.189 123.449 147.648 124.388 148.48C125.327 149.313 125.927 150.461 126.075 151.707L131.857 199.472C131.964 200.363 132.394 201.184 133.065 201.779C133.737 202.375 134.604 202.703 135.502 202.701H152.379C153.493 202.703 154.56 203.146 155.348 203.934C156.135 204.721 156.578 205.788 156.58 206.902Z" fill="white"/>
<path opacity="0.2" d="M136.48 207.513H102.31C99.822 207.513 97.4361 206.524 95.677 204.765C93.9179 203.006 92.9297 200.62 92.9297 198.133V148.412C92.9304 148.2 92.9858 147.992 93.0905 147.809H119.891C120.903 147.808 121.879 148.184 122.63 148.862C123.382 149.54 123.855 150.473 123.958 151.48L128.976 200.739C129.161 202.599 130.032 204.323 131.419 205.575C132.807 206.828 134.611 207.518 136.48 207.513Z" fill="black"/>
<path d="M188.801 250.315L193.183 251.447L196.358 241.491L191.977 240.352L188.801 250.315Z" fill="#B55B52"/>
<path opacity="0.2" d="M196.359 241.488L194.597 247.022L190.336 245.494L191.971 240.355L196.359 241.488Z" fill="black"/>
<path d="M189.927 242.824L195.381 208.553L179.924 201.987L192.051 196.406C192.051 196.406 203.722 199.884 207.628 202.704C211.535 205.525 195.97 244.378 195.97 244.378L189.927 242.824Z" fill="#4B0081"/>
<path opacity="0.6" d="M189.927 242.824L195.381 208.553L179.924 201.987L192.051 196.406C192.051 196.406 203.722 199.884 207.628 202.704C211.535 205.525 195.97 244.378 195.97 244.378L189.927 242.824Z" fill="white"/>
<path d="M193.834 249.622L188.996 248.088C188.912 248.061 188.821 248.065 188.74 248.1C188.659 248.134 188.593 248.196 188.554 248.275L186.691 251.893C186.641 251.983 186.612 252.084 186.606 252.186C186.601 252.289 186.619 252.392 186.66 252.487C186.701 252.582 186.763 252.665 186.842 252.732C186.92 252.799 187.013 252.847 187.113 252.872C188.815 253.381 189.659 253.542 191.803 254.212C193.143 254.627 195.777 255.625 197.586 256.222C199.395 256.818 200.098 255.056 199.401 254.654C196.279 252.865 195.294 251.451 194.483 250.145C194.335 249.899 194.105 249.714 193.834 249.622Z" fill="#263238"/>
<path d="M196.312 250.346C196.401 250.306 196.48 250.246 196.541 250.171C196.603 250.095 196.646 250.006 196.667 249.911C196.683 249.855 196.685 249.796 196.67 249.739C196.656 249.682 196.627 249.631 196.587 249.589C196.165 249.133 194.141 249.455 193.907 249.495C193.885 249.498 193.864 249.508 193.848 249.524C193.832 249.54 193.822 249.56 193.82 249.582C193.816 249.605 193.82 249.627 193.829 249.647C193.839 249.668 193.854 249.685 193.873 249.696C194.288 249.929 194.723 250.124 195.173 250.279C195.534 250.43 195.936 250.453 196.312 250.346ZM196.433 249.736C196.444 249.756 196.451 249.778 196.451 249.8C196.451 249.823 196.444 249.845 196.433 249.864C196.42 249.927 196.392 249.987 196.351 250.037C196.31 250.087 196.258 250.127 196.198 250.152C195.856 250.299 195.139 250.118 194.235 249.656C195.099 249.542 196.211 249.482 196.446 249.723L196.433 249.736Z" fill="#4B0081"/>
<path d="M193.954 249.723C194.557 249.649 195.89 249.053 195.964 248.537C195.964 248.416 195.964 248.256 195.675 248.135H195.588C194.63 247.827 193.873 249.522 193.84 249.596C193.83 249.612 193.824 249.63 193.824 249.649C193.824 249.668 193.83 249.687 193.84 249.703C193.845 249.713 193.853 249.722 193.862 249.729C193.871 249.736 193.882 249.741 193.893 249.743L193.954 249.723ZM195.595 248.329C195.769 248.41 195.763 248.483 195.756 248.51C195.709 248.812 194.771 249.321 194.135 249.468C194.349 249.06 194.918 248.128 195.535 248.309L195.595 248.329Z" fill="#4B0081"/>
<path d="M189.229 241.516L188.666 243.646L195.982 246.112L197.369 243.351L189.229 241.516Z" fill="#4B0081"/>
<path d="M209.812 253.57L214.335 253.39L214.489 242.938L209.967 243.118L209.812 253.57Z" fill="#B55B52"/>
<path d="M214.401 251.172H209.329C209.241 251.172 209.156 251.203 209.089 251.26C209.022 251.316 208.976 251.394 208.96 251.48L208.29 255.5C208.276 255.601 208.283 255.703 208.312 255.801C208.341 255.898 208.39 255.988 208.457 256.064C208.524 256.141 208.607 256.202 208.699 256.243C208.792 256.285 208.892 256.306 208.994 256.305C210.769 256.305 211.62 256.17 213.851 256.17C215.225 256.17 218.066 256.318 219.962 256.318C221.858 256.318 222.005 254.442 221.221 254.268C217.697 253.511 216.33 252.459 215.191 251.46C214.974 251.268 214.691 251.165 214.401 251.172Z" fill="#263238"/>
<path opacity="0.2" d="M214.49 242.938L214.409 248.746L209.887 248.512L209.967 243.118L214.49 242.938Z" fill="black"/>
<path d="M217.17 251.687C217.244 251.624 217.302 251.543 217.338 251.452C217.374 251.361 217.388 251.262 217.377 251.165C217.377 251.106 217.361 251.049 217.33 250.999C217.299 250.95 217.255 250.909 217.203 250.883C216.66 250.575 214.831 251.493 214.623 251.6C214.604 251.61 214.589 251.626 214.579 251.645C214.569 251.664 214.566 251.686 214.57 251.707C214.572 251.729 214.581 251.75 214.595 251.767C214.61 251.784 214.629 251.796 214.65 251.801C215.118 251.898 215.593 251.951 216.071 251.962C216.458 251.997 216.845 251.901 217.17 251.687ZM217.082 251.064C217.103 251.075 217.121 251.091 217.133 251.111C217.145 251.131 217.151 251.155 217.149 251.178C217.157 251.243 217.149 251.308 217.125 251.369C217.102 251.429 217.064 251.484 217.015 251.526C216.734 251.768 215.99 251.815 215.005 251.647C215.742 251.292 216.801 250.897 217.082 251.064Z" fill="#4B0081"/>
<path d="M214.717 251.796C215.266 251.548 216.358 250.57 216.278 250.06C216.278 249.94 216.177 249.792 215.882 249.766H215.795C214.784 249.766 214.576 251.615 214.569 251.695C214.567 251.713 214.569 251.731 214.576 251.748C214.584 251.764 214.595 251.778 214.609 251.789H214.67L214.717 251.796ZM215.862 249.973C216.05 249.973 216.063 250.067 216.07 250.094C216.117 250.402 215.4 251.166 214.81 251.501C214.891 251.045 215.145 249.973 215.795 249.973H215.862Z" fill="#4B0081"/>
<path d="M187.602 178.477L191.106 185.927C191.106 185.927 213.813 186.791 219.367 195.89C221.605 199.555 214.677 247.48 214.677 247.48L208.881 247.105C208.881 247.105 206.315 220.305 206.818 204.359C206.818 204.359 183.468 207.642 177.19 204.493C170.912 201.344 168.681 195.361 169.365 187.146C170.048 178.932 187.602 178.477 187.602 178.477Z" fill="#4B0081"/>
<path opacity="0.7" d="M187.602 178.477L191.106 185.927C191.106 185.927 213.813 186.791 219.367 195.89C221.605 199.555 214.677 247.48 214.677 247.48L208.881 247.105C208.881 247.105 206.315 220.305 206.818 204.359C206.818 204.359 183.468 207.642 177.19 204.493C170.912 201.344 168.681 195.361 169.365 187.146C170.048 178.932 187.602 178.477 187.602 178.477Z" fill="white"/>
<path d="M170.115 159.272C167.924 164.237 165.76 169.57 164.708 174.863C164.714 174.626 164.666 174.392 164.567 174.177C164.468 173.962 164.322 173.773 164.138 173.623C164.011 173.53 163.957 173.523 163.944 173.523C164.327 173.657 164.731 173.723 165.137 173.717C169.056 173.717 173.177 172.819 177.13 172.129L177.947 174.702C174.222 176.183 162.195 181.288 160.045 175.988C159.776 175.25 159.724 174.45 159.897 173.684C160.715 167.707 162.664 162.294 165.197 156.934L170.115 159.272Z" fill="#B55B52"/>
<path d="M161.324 163.227L167.991 167.287C167.991 167.287 168.353 166.898 168.875 166.242C169.94 164.902 171.656 162.396 172.125 159.823C172.281 159.055 172.297 158.265 172.172 157.491C171.776 155.234 169.605 153.512 166.731 154.617C163.857 155.723 161.324 163.227 161.324 163.227Z" fill="#4B0081"/>
<path opacity="0.2" d="M168.874 166.24C169.94 164.9 171.655 162.395 172.124 159.822C171.876 159.493 170.703 157.517 170.395 157.195C170.395 157.195 166.831 160.016 168.874 166.24Z" fill="black"/>
<path d="M207.629 245.085L207.743 247.29L215.461 247.424L215.944 244.375L207.629 245.085Z" fill="#4B0081"/>
<path d="M186.676 139.67C186.676 140.032 186.877 140.34 187.119 140.34C187.36 140.34 187.547 140.052 187.541 139.67C187.534 139.288 187.333 139 187.092 139C186.851 139 186.663 139.308 186.676 139.67Z" fill="#263238"/>
<path d="M186.992 139.034L187.863 138.793C187.863 138.793 187.428 139.47 186.992 139.034Z" fill="#263238"/>
<path d="M186.992 140.023C187.333 140.853 187.783 141.633 188.332 142.342C188.145 142.473 187.932 142.561 187.708 142.602C187.484 142.642 187.253 142.634 187.032 142.576L186.992 140.023Z" fill="#A02724"/>
<path d="M187.119 137.249H187.012C186.755 137.157 186.48 137.126 186.209 137.159C185.939 137.191 185.679 137.286 185.451 137.436C185.429 137.454 185.403 137.466 185.376 137.474C185.348 137.481 185.32 137.483 185.292 137.479C185.264 137.475 185.237 137.466 185.212 137.452C185.188 137.438 185.167 137.419 185.149 137.396C185.132 137.374 185.12 137.349 185.113 137.323C185.105 137.296 185.104 137.268 185.107 137.24C185.111 137.213 185.12 137.186 185.134 137.163C185.149 137.139 185.167 137.118 185.19 137.101C185.473 136.908 185.797 136.783 186.137 136.738C186.477 136.693 186.822 136.728 187.146 136.84C187.189 136.854 187.227 136.881 187.254 136.918C187.281 136.955 187.296 136.999 187.296 137.045C187.296 137.09 187.281 137.134 187.254 137.171C187.227 137.208 187.189 137.235 187.146 137.249H187.119Z" fill="#263238"/>
<path d="M168.627 196.406C181.605 199.568 193.605 191.267 193.605 191.267C189.544 180.955 191.126 172.587 192.043 167.595C192.256 166.591 192.413 165.575 192.512 164.554C192.567 163.516 192.533 162.476 192.412 161.445C192.147 159.064 192.004 156.671 191.983 154.276C191.983 154.276 186.677 152.514 174.295 152.601C174.098 152.617 173.903 152.651 173.712 152.701C173.163 152.815 172.627 152.936 172.104 153.056C171.742 153.137 171.401 153.217 171.066 153.311C170.731 153.405 170.295 153.519 169.933 153.619C168.024 154.155 166.697 154.631 166.697 154.631C172.654 169.217 165.719 185.645 168.627 196.406Z" fill="#4B0081"/>
<path d="M174.397 138.578C174.765 143.033 174.819 144.922 177.137 147.221C180.628 150.685 186.068 149.418 187.053 144.983C187.937 140.963 187.194 134.383 182.752 132.574C181.801 132.157 180.758 131.995 179.725 132.103C178.692 132.212 177.705 132.587 176.862 133.193C176.019 133.799 175.348 134.614 174.916 135.559C174.483 136.503 174.304 137.543 174.397 138.578Z" fill="#B55B52"/>
<path d="M183.314 139.275C183.488 140.089 183.909 140.828 184.52 141.392C185.371 142.196 186.122 141.801 186.162 140.917C186.202 140.032 185.8 138.739 184.822 138.237C183.844 137.734 183.154 138.364 183.314 139.275Z" fill="#B55B52"/>
<path opacity="0.2" d="M191.622 176.025C191.856 174.799 192.453 165.305 192.5 164.534C192.554 163.497 192.52 162.457 192.399 161.426C190 159.664 188.325 164.622 188.325 164.622C188.325 164.622 186.161 170.049 191.622 176.025Z" fill="black"/>
<path d="M194.878 160.012C195.116 165.9 195.82 171.761 196.982 177.539C197.169 178.35 198.255 179.321 199.025 179.951C202.462 182.631 206.663 184.641 210.63 186.51L209.712 189.237C206.585 188.512 203.531 187.505 200.586 186.229C197.129 184.567 193.022 182.725 191.816 178.577C190.128 172.568 189.214 166.367 189.096 160.126L194.891 160.012H194.878Z" fill="#B55B52"/>
<path d="M209.712 186.227L213.498 187.567L211.662 190.628C211.662 190.628 207.79 189.958 208.312 187.205L209.712 186.227Z" fill="#B55B52"/>
<path d="M214.729 188.928L213.838 191.762L211.641 190.61L213.476 187.555L214.729 188.928Z" fill="#B55B52"/>
<path d="M191.984 154.276C194.556 155.006 197.726 163.053 197.659 165.773L189.049 170.048C189.049 170.048 186.992 165.21 188.915 158.343C189.612 155.763 190.583 153.914 191.984 154.276Z" fill="#4B0081"/>
<path d="M185.21 131.595C188.017 132.935 188.064 139.689 184.419 142.476C184.419 142.476 184.346 146.918 186.543 149.062C188.741 151.206 187.18 156.178 182.409 159.749C182.409 159.749 183.703 157.658 183.749 156.895C182.592 158.9 180.916 160.557 178.899 161.692C175.549 163.548 176.333 165.899 176.333 165.899C176.333 165.899 171.254 165.129 171.381 160.137C170.987 161.187 171.013 162.349 171.455 163.38C170.355 162.611 169.468 161.576 168.877 160.372C168.285 159.168 168.008 157.833 168.071 156.493C168.386 151.977 170.503 151.039 169.244 141.217C168.172 132.674 175.944 127.193 185.21 131.595Z" fill="#263238"/>
<path d="M183.059 208.551L181.605 256.155H183.656L186.054 208.551H183.059Z" fill="#263238"/>
<path d="M189.926 209.638H208.304L214.12 256.156H216.498L211.138 206.328L189.926 206.824V209.638Z" fill="#263238"/>
<path d="M188.587 206.824H162.551H161.211L155.482 256.157H156.782L157.03 254.368L156.822 256.157H158.122L164.702 209.752H186.108L186.282 256.157H187.622H187.723H189.063L189.927 206.824H188.587Z" fill="#263238"/>
<path opacity="0.2" d="M187.723 256.157L188.587 206.824H161.211L155.482 256.157H156.782L163.355 209.752H186.108L186.282 256.157H187.723Z" fill="white"/>
<path opacity="0.2" d="M208.305 209.637H209.799L215.474 256.155H214.12L208.305 209.637Z" fill="white"/>
<path d="M190.75 199.472L184.988 151.707C184.836 150.463 184.234 149.317 183.296 148.486C182.359 147.654 181.149 147.194 179.896 147.191H153.055C152.731 147.193 152.421 147.323 152.193 147.553C151.964 147.783 151.836 148.093 151.836 148.418V198.132C151.836 200.619 152.824 203.005 154.583 204.764C156.342 206.524 158.728 207.512 161.216 207.512H214.897C214.974 207.512 215.05 207.496 215.121 207.467C215.192 207.437 215.257 207.394 215.311 207.339C215.365 207.284 215.408 207.219 215.437 207.147C215.466 207.076 215.48 206.999 215.48 206.922C215.48 205.81 215.038 204.743 214.251 203.956C213.465 203.17 212.398 202.728 211.285 202.728H194.401C193.499 202.727 192.629 202.395 191.956 201.795C191.282 201.195 190.853 200.368 190.75 199.472Z" fill="#263238"/>
<path opacity="0.7" d="M215.48 206.902C215.479 207.058 215.416 207.207 215.306 207.317C215.196 207.427 215.047 207.49 214.891 207.492H161.21C158.722 207.492 156.337 206.503 154.577 204.744C152.818 202.985 151.83 200.599 151.83 198.112V148.411C151.831 148.199 151.886 147.992 151.991 147.808C152.097 147.62 152.251 147.464 152.437 147.356C152.623 147.248 152.834 147.191 153.049 147.191H179.897C181.151 147.189 182.363 147.648 183.302 148.48C184.24 149.313 184.841 150.461 184.989 151.707L190.757 199.472C190.864 200.363 191.294 201.184 191.966 201.779C192.638 202.375 193.504 202.703 194.402 202.701H211.279C212.393 202.703 213.461 203.146 214.248 203.934C215.035 204.721 215.479 205.788 215.48 206.902Z" fill="white"/>
<path opacity="0.2" d="M195.38 207.513H161.21C158.722 207.513 156.337 206.524 154.577 204.765C152.818 203.006 151.83 200.62 151.83 198.133V148.412C151.831 148.2 151.886 147.992 151.991 147.809H178.791C179.803 147.808 180.78 148.184 181.531 148.862C182.282 149.54 182.755 150.473 182.858 151.48L187.876 200.739C188.061 202.599 188.932 204.323 190.32 205.575C191.707 206.828 193.511 207.518 195.38 207.513Z" fill="black"/>
</svg>
